# Blender 4.2.0
# www.blender.org
mtllib normal_stage_field.mtl
o normal_dust_runway_floor
v -12.000000 -40.000000 1.350000
v 12.000000 -40.000000 1.350000
v 12.000000 40.000000 1.280000
v -12.000000 40.000000 1.280000
vn -0.0000 0.0009 1.0000
s 0
usemtl field_dust_floor
f 1//1 2//1 3//1 4//1
o normal_center_river_strip
v -2.200000 -40.000000 1.180000
v 2.200000 -40.000000 1.180000
v 1.800000 40.000000 1.140000
v -1.800000 40.000000 1.140000
vn -0.0000 0.0005 1.0000
s 0
usemtl field_river_blue
f 5//2 6//2 7//2 8//2
o normal_left_far_wall_front
v -26.400000 -40.000000 0.250000
v -26.400000 0.000000 0.250000
v -26.400000 -40.000000 -10.250000
v -26.400000 0.000000 -10.250000
v -21.600000 -40.000000 0.250000
v -21.600000 0.000000 0.250000
v -21.600000 -40.000000 -10.250000
v -21.600000 0.000000 -10.250000
vn -1.0000 -0.0000 -0.0000
vn -0.0000 -0.0000 -1.0000
vn 1.0000 -0.0000 -0.0000
vn -0.0000 -0.0000 1.0000
vn -0.0000 -1.0000 -0.0000
vn -0.0000 1.0000 -0.0000
vt 0.375000 0.000000
vt 0.625000 0.000000
vt 0.625000 0.250000
vt 0.375000 0.250000
vt 0.625000 0.500000
vt 0.375000 0.500000
vt 0.625000 0.750000
vt 0.375000 0.750000
vt 0.625000 1.000000
vt 0.375000 1.000000
vt 0.125000 0.500000
vt 0.125000 0.750000
vt 0.875000 0.500000
vt 0.875000 0.750000
s 0
usemtl field_rock_red_gray
f 9/1/3 10/2/3 12/3/3 11/4/3
f 11/4/4 12/3/4 16/5/4 15/6/4
f 15/6/5 16/5/5 14/7/5 13/8/5
f 13/8/6 14/7/6 10/9/6 9/10/6
f 11/11/7 15/6/7 13/8/7 9/12/7
f 16/5/8 12/13/8 10/14/8 14/7/8
o normal_left_far_wall_back
v -26.400000 8.000000 0.100000
v -26.400000 40.000000 0.100000
v -26.400000 8.000000 -10.900000
v -26.400000 40.000000 -10.900000
v -21.600000 8.000000 0.100000
v -21.600000 40.000000 0.100000
v -21.600000 8.000000 -10.900000
v -21.600000 40.000000 -10.900000
vn -1.0000 -0.0000 -0.0000
vn -0.0000 -0.0000 -1.0000
vn 1.0000 -0.0000 -0.0000
vn -0.0000 -0.0000 1.0000
vn -0.0000 -1.0000 -0.0000
vn -0.0000 1.0000 -0.0000
vt 0.375000 0.000000
vt 0.625000 0.000000
vt 0.625000 0.250000
vt 0.375000 0.250000
vt 0.625000 0.500000
vt 0.375000 0.500000
vt 0.625000 0.750000
vt 0.375000 0.750000
vt 0.625000 1.000000
vt 0.375000 1.000000
vt 0.125000 0.500000
vt 0.125000 0.750000
vt 0.875000 0.500000
vt 0.875000 0.750000
s 0
usemtl field_shadow_rock
f 17/15/9 18/16/9 20/17/9 19/18/9
f 19/18/10 20/17/10 24/19/10 23/20/10
f 23/20/11 24/19/11 22/21/11 21/22/11
f 21/22/12 22/21/12 18/23/12 17/24/12
f 19/25/13 23/20/13 21/22/13 17/26/13
f 24/19/14 20/27/14 18/28/14 22/21/14
o normal_left_low_bank_front
v -14.400000 -33.000000 1.100000
v -14.400000 -15.000000 1.100000
v -14.400000 -33.000000 -0.700000
v -14.400000 -15.000000 -0.700000
v -12.000000 -33.000000 1.100000
v -12.000000 -15.000000 1.100000
v -12.000000 -33.000000 -0.700000
v -12.000000 -15.000000 -0.700000
vn -1.0000 -0.0000 -0.0000
vn -0.0000 -0.0000 -1.0000
vn 1.0000 -0.0000 -0.0000
vn -0.0000 -0.0000 1.0000
vn -0.0000 -1.0000 -0.0000
vn -0.0000 1.0000 -0.0000
vt 0.375000 0.000000
vt 0.625000 0.000000
vt 0.625000 0.250000
vt 0.375000 0.250000
vt 0.625000 0.500000
vt 0.375000 0.500000
vt 0.625000 0.750000
vt 0.375000 0.750000
vt 0.625000 1.000000
vt 0.375000 1.000000
vt 0.125000 0.500000
vt 0.125000 0.750000
vt 0.875000 0.500000
vt 0.875000 0.750000
s 0
usemtl field_shadow_rock
f 25/29/15 26/30/15 28/31/15 27/32/15
f 27/32/16 28/31/16 32/33/16 31/34/16
f 31/34/17 32/33/17 30/35/17 29/36/17
f 29/36/18 30/35/18 26/37/18 25/38/18
f 27/39/19 31/34/19 29/36/19 25/40/19
f 32/33/20 28/41/20 26/42/20 30/35/20
o normal_left_low_bank_back
v -14.300000 7.000000 1.000000
v -14.300000 29.000000 1.000000
v -14.300000 7.000000 -0.600000
v -14.300000 29.000000 -0.600000
v -12.099999 7.000000 1.000000
v -12.099999 29.000000 1.000000
v -12.099999 7.000000 -0.600000
v -12.099999 29.000000 -0.600000
vn -1.0000 -0.0000 -0.0000
vn -0.0000 -0.0000 -1.0000
vn 1.0000 -0.0000 -0.0000
vn -0.0000 -0.0000 1.0000
vn -0.0000 -1.0000 -0.0000
vn -0.0000 1.0000 -0.0000
vt 0.375000 0.000000
vt 0.625000 0.000000
vt 0.625000 0.250000
vt 0.375000 0.250000
vt 0.625000 0.500000
vt 0.375000 0.500000
vt 0.625000 0.750000
vt 0.375000 0.750000
vt 0.625000 1.000000
vt 0.375000 1.000000
vt 0.125000 0.500000
vt 0.125000 0.750000
vt 0.875000 0.500000
vt 0.875000 0.750000
s 0
usemtl field_rock_red_gray
f 33/43/21 34/44/21 36/45/21 35/46/21
f 35/46/22 36/45/22 40/47/22 39/48/22
f 39/48/23 40/47/23 38/49/23 37/50/23
f 37/50/24 38/49/24 34/51/24 33/52/24
f 35/53/25 39/48/25 37/50/25 33/54/25
f 40/47/26 36/55/26 34/56/26 38/49/26
o normal_right_far_wall_front
v 21.600000 -40.000000 0.250000
v 21.600000 0.000000 0.250000
v 21.600000 -40.000000 -10.250000
v 21.600000 0.000000 -10.250000
v 26.400000 -40.000000 0.250000
v 26.400000 0.000000 0.250000
v 26.400000 -40.000000 -10.250000
v 26.400000 0.000000 -10.250000
vn -1.0000 -0.0000 -0.0000
vn -0.0000 -0.0000 -1.0000
vn 1.0000 -0.0000 -0.0000
vn -0.0000 -0.0000 1.0000
vn -0.0000 -1.0000 -0.0000
vn -0.0000 1.0000 -0.0000
vt 0.375000 0.000000
vt 0.625000 0.000000
vt 0.625000 0.250000
vt 0.375000 0.250000
vt 0.625000 0.500000
vt 0.375000 0.500000
vt 0.625000 0.750000
vt 0.375000 0.750000
vt 0.625000 1.000000
vt 0.375000 1.000000
vt 0.125000 0.500000
vt 0.125000 0.750000
vt 0.875000 0.500000
vt 0.875000 0.750000
s 0
usemtl field_rock_red_gray
f 41/57/27 42/58/27 44/59/27 43/60/27
f 43/60/28 44/59/28 48/61/28 47/62/28
f 47/62/29 48/61/29 46/63/29 45/64/29
f 45/64/30 46/63/30 42/65/30 41/66/30
f 43/67/31 47/62/31 45/64/31 41/68/31
f 48/61/32 44/69/32 42/70/32 46/63/32
o normal_right_far_wall_back
v 21.600000 8.000000 0.100000
v 21.600000 40.000000 0.100000
v 21.600000 8.000000 -10.900000
v 21.600000 40.000000 -10.900000
v 26.400000 8.000000 0.100000
v 26.400000 40.000000 0.100000
v 26.400000 8.000000 -10.900000
v 26.400000 40.000000 -10.900000
vn -1.0000 -0.0000 -0.0000
vn -0.0000 -0.0000 -1.0000
vn 1.0000 -0.0000 -0.0000
vn -0.0000 -0.0000 1.0000
vn -0.0000 -1.0000 -0.0000
vn -0.0000 1.0000 -0.0000
vt 0.375000 0.000000
vt 0.625000 0.000000
vt 0.625000 0.250000
vt 0.375000 0.250000
vt 0.625000 0.500000
vt 0.375000 0.500000
vt 0.625000 0.750000
vt 0.375000 0.750000
vt 0.625000 1.000000
vt 0.375000 1.000000
vt 0.125000 0.500000
vt 0.125000 0.750000
vt 0.875000 0.500000
vt 0.875000 0.750000
s 0
usemtl field_shadow_rock
f 49/71/33 50/72/33 52/73/33 51/74/33
f 51/74/34 52/73/34 56/75/34 55/76/34
f 55/76/35 56/75/35 54/77/35 53/78/35
f 53/78/36 54/77/36 50/79/36 49/80/36
f 51/81/37 55/76/37 53/78/37 49/82/37
f 56/75/38 52/83/38 50/84/38 54/77/38
o normal_right_low_bank_front
v 12.000000 -33.000000 1.100000
v 12.000000 -15.000000 1.100000
v 12.000000 -33.000000 -0.700000
v 12.000000 -15.000000 -0.700000
v 14.400000 -33.000000 1.100000
v 14.400000 -15.000000 1.100000
v 14.400000 -33.000000 -0.700000
v 14.400000 -15.000000 -0.700000
vn -1.0000 -0.0000 -0.0000
vn -0.0000 -0.0000 -1.0000
vn 1.0000 -0.0000 -0.0000
vn -0.0000 -0.0000 1.0000
vn -0.0000 -1.0000 -0.0000
vn -0.0000 1.0000 -0.0000
vt 0.375000 0.000000
vt 0.625000 0.000000
vt 0.625000 0.250000
vt 0.375000 0.250000
vt 0.625000 0.500000
vt 0.375000 0.500000
vt 0.625000 0.750000
vt 0.375000 0.750000
vt 0.625000 1.000000
vt 0.375000 1.000000
vt 0.125000 0.500000
vt 0.125000 0.750000
vt 0.875000 0.500000
vt 0.875000 0.750000
s 0
usemtl field_shadow_rock
f 57/85/39 58/86/39 60/87/39 59/88/39
f 59/88/40 60/87/40 64/89/40 63/90/40
f 63/90/41 64/89/41 62/91/41 61/92/41
f 61/92/42 62/91/42 58/93/42 57/94/42
f 59/95/43 63/90/43 61/92/43 57/96/43
f 64/89/44 60/97/44 58/98/44 62/91/44
o normal_right_low_bank_back
v 12.099999 7.000000 1.000000
v 12.099999 29.000000 1.000000
v 12.099999 7.000000 -0.600000
v 12.099999 29.000000 -0.600000
v 14.300000 7.000000 1.000000
v 14.300000 29.000000 1.000000
v 14.300000 7.000000 -0.600000
v 14.300000 29.000000 -0.600000
vn -1.0000 -0.0000 -0.0000
vn -0.0000 -0.0000 -1.0000
vn 1.0000 -0.0000 -0.0000
vn -0.0000 -0.0000 1.0000
vn -0.0000 -1.0000 -0.0000
vn -0.0000 1.0000 -0.0000
vt 0.375000 0.000000
vt 0.625000 0.000000
vt 0.625000 0.250000
vt 0.375000 0.250000
vt 0.625000 0.500000
vt 0.375000 0.500000
vt 0.625000 0.750000
vt 0.375000 0.750000
vt 0.625000 1.000000
vt 0.375000 1.000000
vt 0.125000 0.500000
vt 0.125000 0.750000
vt 0.875000 0.500000
vt 0.875000 0.750000
s 0
usemtl field_rock_red_gray
f 65/99/45 66/100/45 68/101/45 67/102/45
f 67/102/46 68/101/46 72/103/46 71/104/46
f 71/104/47 72/103/47 70/105/47 69/106/47
f 69/106/48 70/105/48 66/107/48 65/108/48
f 67/109/49 71/104/49 69/106/49 65/110/49
f 72/103/50 68/111/50 66/112/50 70/105/50
o normal_left_guidance_marker_-32
v -7.260000 -33.599998 0.410000
v -7.260000 -30.400000 0.410000
v -7.260000 -33.599998 0.290000
v -7.260000 -30.400000 0.290000
v -7.140000 -33.599998 0.410000
v -7.140000 -30.400000 0.410000
v -7.140000 -33.599998 0.290000
v -7.140000 -30.400000 0.290000
vn -1.0000 -0.0000 -0.0000
vn -0.0000 -0.0000 -1.0000
vn 1.0000 -0.0000 -0.0000
vn -0.0000 -0.0000 1.0000
vn -0.0000 -1.0000 -0.0000
vn -0.0000 1.0000 -0.0000
vt 0.375000 0.000000
vt 0.625000 0.000000
vt 0.625000 0.250000
vt 0.375000 0.250000
vt 0.625000 0.500000
vt 0.375000 0.500000
vt 0.625000 0.750000
vt 0.375000 0.750000
vt 0.625000 1.000000
vt 0.375000 1.000000
vt 0.125000 0.500000
vt 0.125000 0.750000
vt 0.875000 0.500000
vt 0.875000 0.750000
s 0
usemtl field_guidance_rail
f 73/113/51 74/114/51 76/115/51 75/116/51
f 75/116/52 76/115/52 80/117/52 79/118/52
f 79/118/53 80/117/53 78/119/53 77/120/53
f 77/120/54 78/119/54 74/121/54 73/122/54
f 75/123/55 79/118/55 77/120/55 73/124/55
f 80/117/56 76/125/56 74/126/56 78/119/56
o normal_right_guidance_marker_-32
v 7.140000 -33.599998 0.410000
v 7.140000 -30.400000 0.410000
v 7.140000 -33.599998 0.290000
v 7.140000 -30.400000 0.290000
v 7.260000 -33.599998 0.410000
v 7.260000 -30.400000 0.410000
v 7.260000 -33.599998 0.290000
v 7.260000 -30.400000 0.290000
vn -1.0000 -0.0000 -0.0000
vn -0.0000 -0.0000 -1.0000
vn 1.0000 -0.0000 -0.0000
vn -0.0000 -0.0000 1.0000
vn -0.0000 -1.0000 -0.0000
vn -0.0000 1.0000 -0.0000
vt 0.375000 0.000000
vt 0.625000 0.000000
vt 0.625000 0.250000
vt 0.375000 0.250000
vt 0.625000 0.500000
vt 0.375000 0.500000
vt 0.625000 0.750000
vt 0.375000 0.750000
vt 0.625000 1.000000
vt 0.375000 1.000000
vt 0.125000 0.500000
vt 0.125000 0.750000
vt 0.875000 0.500000
vt 0.875000 0.750000
s 0
usemtl field_guidance_rail
f 81/127/57 82/128/57 84/129/57 83/130/57
f 83/130/58 84/129/58 88/131/58 87/132/58
f 87/132/59 88/131/59 86/133/59 85/134/59
f 85/134/60 86/133/60 82/135/60 81/136/60
f 83/137/61 87/132/61 85/134/61 81/138/61
f 88/131/62 84/139/62 82/140/62 86/133/62
o normal_left_guidance_marker_-16
v -7.260000 -17.600000 0.410000
v -7.260000 -14.400000 0.410000
v -7.260000 -17.600000 0.290000
v -7.260000 -14.400000 0.290000
v -7.140000 -17.600000 0.410000
v -7.140000 -14.400000 0.410000
v -7.140000 -17.600000 0.290000
v -7.140000 -14.400000 0.290000
vn -1.0000 -0.0000 -0.0000
vn -0.0000 -0.0000 -1.0000
vn 1.0000 -0.0000 -0.0000
vn -0.0000 -0.0000 1.0000
vn -0.0000 -1.0000 -0.0000
vn -0.0000 1.0000 -0.0000
vt 0.375000 0.000000
vt 0.625000 0.000000
vt 0.625000 0.250000
vt 0.375000 0.250000
vt 0.625000 0.500000
vt 0.375000 0.500000
vt 0.625000 0.750000
vt 0.375000 0.750000
vt 0.625000 1.000000
vt 0.375000 1.000000
vt 0.125000 0.500000
vt 0.125000 0.750000
vt 0.875000 0.500000
vt 0.875000 0.750000
s 0
usemtl field_guidance_rail
f 89/141/63 90/142/63 92/143/63 91/144/63
f 91/144/64 92/143/64 96/145/64 95/146/64
f 95/146/65 96/145/65 94/147/65 93/148/65
f 93/148/66 94/147/66 90/149/66 89/150/66
f 91/151/67 95/146/67 93/148/67 89/152/67
f 96/145/68 92/153/68 90/154/68 94/147/68
o normal_right_guidance_marker_-16
v 7.140000 -17.600000 0.410000
v 7.140000 -14.400000 0.410000
v 7.140000 -17.600000 0.290000
v 7.140000 -14.400000 0.290000
v 7.260000 -17.600000 0.410000
v 7.260000 -14.400000 0.410000
v 7.260000 -17.600000 0.290000
v 7.260000 -14.400000 0.290000
vn -1.0000 -0.0000 -0.0000
vn -0.0000 -0.0000 -1.0000
vn 1.0000 -0.0000 -0.0000
vn -0.0000 -0.0000 1.0000
vn -0.0000 -1.0000 -0.0000
vn -0.0000 1.0000 -0.0000
vt 0.375000 0.000000
vt 0.625000 0.000000
vt 0.625000 0.250000
vt 0.375000 0.250000
vt 0.625000 0.500000
vt 0.375000 0.500000
vt 0.625000 0.750000
vt 0.375000 0.750000
vt 0.625000 1.000000
vt 0.375000 1.000000
vt 0.125000 0.500000
vt 0.125000 0.750000
vt 0.875000 0.500000
vt 0.875000 0.750000
s 0
usemtl field_guidance_rail
f 97/155/69 98/156/69 100/157/69 99/158/69
f 99/158/70 100/157/70 104/159/70 103/160/70
f 103/160/71 104/159/71 102/161/71 101/162/71
f 101/162/72 102/161/72 98/163/72 97/164/72
f 99/165/73 103/160/73 101/162/73 97/166/73
f 104/159/74 100/167/74 98/168/74 102/161/74
o normal_left_guidance_marker_0
v -7.260000 -1.600000 0.410000
v -7.260000 1.600000 0.410000
v -7.260000 -1.600000 0.290000
v -7.260000 1.600000 0.290000
v -7.140000 -1.600000 0.410000
v -7.140000 1.600000 0.410000
v -7.140000 -1.600000 0.290000
v -7.140000 1.600000 0.290000
vn -1.0000 -0.0000 -0.0000
vn -0.0000 -0.0000 -1.0000
vn 1.0000 -0.0000 -0.0000
vn -0.0000 -0.0000 1.0000
vn -0.0000 -1.0000 -0.0000
vn -0.0000 1.0000 -0.0000
vt 0.375000 0.000000
vt 0.625000 0.000000
vt 0.625000 0.250000
vt 0.375000 0.250000
vt 0.625000 0.500000
vt 0.375000 0.500000
vt 0.625000 0.750000
vt 0.375000 0.750000
vt 0.625000 1.000000
vt 0.375000 1.000000
vt 0.125000 0.500000
vt 0.125000 0.750000
vt 0.875000 0.500000
vt 0.875000 0.750000
s 0
usemtl field_guidance_rail
f 105/169/75 106/170/75 108/171/75 107/172/75
f 107/172/76 108/171/76 112/173/76 111/174/76
f 111/174/77 112/173/77 110/175/77 109/176/77
f 109/176/78 110/175/78 106/177/78 105/178/78
f 107/179/79 111/174/79 109/176/79 105/180/79
f 112/173/80 108/181/80 106/182/80 110/175/80
o normal_right_guidance_marker_0
v 7.140000 -1.600000 0.410000
v 7.140000 1.600000 0.410000
v 7.140000 -1.600000 0.290000
v 7.140000 1.600000 0.290000
v 7.260000 -1.600000 0.410000
v 7.260000 1.600000 0.410000
v 7.260000 -1.600000 0.290000
v 7.260000 1.600000 0.290000
vn -1.0000 -0.0000 -0.0000
vn -0.0000 -0.0000 -1.0000
vn 1.0000 -0.0000 -0.0000
vn -0.0000 -0.0000 1.0000
vn -0.0000 -1.0000 -0.0000
vn -0.0000 1.0000 -0.0000
vt 0.375000 0.000000
vt 0.625000 0.000000
vt 0.625000 0.250000
vt 0.375000 0.250000
vt 0.625000 0.500000
vt 0.375000 0.500000
vt 0.625000 0.750000
vt 0.375000 0.750000
vt 0.625000 1.000000
vt 0.375000 1.000000
vt 0.125000 0.500000
vt 0.125000 0.750000
vt 0.875000 0.500000
vt 0.875000 0.750000
s 0
usemtl field_guidance_rail
f 113/183/81 114/184/81 116/185/81 115/186/81
f 115/186/82 116/185/82 120/187/82 119/188/82
f 119/188/83 120/187/83 118/189/83 117/190/83
f 117/190/84 118/189/84 114/191/84 113/192/84
f 115/193/85 119/188/85 117/190/85 113/194/85
f 120/187/86 116/195/86 114/196/86 118/189/86
o normal_left_guidance_marker_16
v -7.260000 14.400000 0.410000
v -7.260000 17.600000 0.410000
v -7.260000 14.400000 0.290000
v -7.260000 17.600000 0.290000
v -7.140000 14.400000 0.410000
v -7.140000 17.600000 0.410000
v -7.140000 14.400000 0.290000
v -7.140000 17.600000 0.290000
vn -1.0000 -0.0000 -0.0000
vn -0.0000 -0.0000 -1.0000
vn 1.0000 -0.0000 -0.0000
vn -0.0000 -0.0000 1.0000
vn -0.0000 -1.0000 -0.0000
vn -0.0000 1.0000 -0.0000
vt 0.375000 0.000000
vt 0.625000 0.000000
vt 0.625000 0.250000
vt 0.375000 0.250000
vt 0.625000 0.500000
vt 0.375000 0.500000
vt 0.625000 0.750000
vt 0.375000 0.750000
vt 0.625000 1.000000
vt 0.375000 1.000000
vt 0.125000 0.500000
vt 0.125000 0.750000
vt 0.875000 0.500000
vt 0.875000 0.750000
s 0
usemtl field_guidance_rail
f 121/197/87 122/198/87 124/199/87 123/200/87
f 123/200/88 124/199/88 128/201/88 127/202/88
f 127/202/89 128/201/89 126/203/89 125/204/89
f 125/204/90 126/203/90 122/205/90 121/206/90
f 123/207/91 127/202/91 125/204/91 121/208/91
f 128/201/92 124/209/92 122/210/92 126/203/92
o normal_right_guidance_marker_16
v 7.140000 14.400000 0.410000
v 7.140000 17.600000 0.410000
v 7.140000 14.400000 0.290000
v 7.140000 17.600000 0.290000
v 7.260000 14.400000 0.410000
v 7.260000 17.600000 0.410000
v 7.260000 14.400000 0.290000
v 7.260000 17.600000 0.290000
vn -1.0000 -0.0000 -0.0000
vn -0.0000 -0.0000 -1.0000
vn 1.0000 -0.0000 -0.0000
vn -0.0000 -0.0000 1.0000
vn -0.0000 -1.0000 -0.0000
vn -0.0000 1.0000 -0.0000
vt 0.375000 0.000000
vt 0.625000 0.000000
vt 0.625000 0.250000
vt 0.375000 0.250000
vt 0.625000 0.500000
vt 0.375000 0.500000
vt 0.625000 0.750000
vt 0.375000 0.750000
vt 0.625000 1.000000
vt 0.375000 1.000000
vt 0.125000 0.500000
vt 0.125000 0.750000
vt 0.875000 0.500000
vt 0.875000 0.750000
s 0
usemtl field_guidance_rail
f 129/211/93 130/212/93 132/213/93 131/214/93
f 131/214/94 132/213/94 136/215/94 135/216/94
f 135/216/95 136/215/95 134/217/95 133/218/95
f 133/218/96 134/217/96 130/219/96 129/220/96
f 131/221/97 135/216/97 133/218/97 129/222/97
f 136/215/98 132/223/98 130/224/98 134/217/98
o normal_left_guidance_marker_32
v -7.260000 30.400000 0.410000
v -7.260000 33.599998 0.410000
v -7.260000 30.400000 0.290000
v -7.260000 33.599998 0.290000
v -7.140000 30.400000 0.410000
v -7.140000 33.599998 0.410000
v -7.140000 30.400000 0.290000
v -7.140000 33.599998 0.290000
vn -1.0000 -0.0000 -0.0000
vn -0.0000 -0.0000 -1.0000
vn 1.0000 -0.0000 -0.0000
vn -0.0000 -0.0000 1.0000
vn -0.0000 -1.0000 -0.0000
vn -0.0000 1.0000 -0.0000
vt 0.375000 0.000000
vt 0.625000 0.000000
vt 0.625000 0.250000
vt 0.375000 0.250000
vt 0.625000 0.500000
vt 0.375000 0.500000
vt 0.625000 0.750000
vt 0.375000 0.750000
vt 0.625000 1.000000
vt 0.375000 1.000000
vt 0.125000 0.500000
vt 0.125000 0.750000
vt 0.875000 0.500000
vt 0.875000 0.750000
s 0
usemtl field_guidance_rail
f 137/225/99 138/226/99 140/227/99 139/228/99
f 139/228/100 140/227/100 144/229/100 143/230/100
f 143/230/101 144/229/101 142/231/101 141/232/101
f 141/232/102 142/231/102 138/233/102 137/234/102
f 139/235/103 143/230/103 141/232/103 137/236/103
f 144/229/104 140/237/104 138/238/104 142/231/104
o normal_right_guidance_marker_32
v 7.140000 30.400000 0.410000
v 7.140000 33.599998 0.410000
v 7.140000 30.400000 0.290000
v 7.140000 33.599998 0.290000
v 7.260000 30.400000 0.410000
v 7.260000 33.599998 0.410000
v 7.260000 30.400000 0.290000
v 7.260000 33.599998 0.290000
vn -1.0000 -0.0000 -0.0000
vn -0.0000 -0.0000 -1.0000
vn 1.0000 -0.0000 -0.0000
vn -0.0000 -0.0000 1.0000
vn -0.0000 -1.0000 -0.0000
vn -0.0000 1.0000 -0.0000
vt 0.375000 0.000000
vt 0.625000 0.000000
vt 0.625000 0.250000
vt 0.375000 0.250000
vt 0.625000 0.500000
vt 0.375000 0.500000
vt 0.625000 0.750000
vt 0.375000 0.750000
vt 0.625000 1.000000
vt 0.375000 1.000000
vt 0.125000 0.500000
vt 0.125000 0.750000
vt 0.875000 0.500000
vt 0.875000 0.750000
s 0
usemtl field_guidance_rail
f 145/239/105 146/240/105 148/241/105 147/242/105
f 147/242/106 148/241/106 152/243/106 151/244/106
f 151/244/107 152/243/107 150/245/107 149/246/107
f 149/246/108 150/245/108 146/247/108 145/248/108
f 147/249/109 151/244/109 149/246/109 145/250/109
f 152/243/110 148/251/110 146/252/110 150/245/110
