# Blender 4.2.0
# www.blender.org
mtllib boss_yamato_battery.mtl
o battery_body
v -0.850000 -1.175000 0.400000
v -0.850000 1.175000 0.400000
v -0.850000 -1.175000 -0.400000
v -0.850000 1.175000 -0.400000
v 0.850000 -1.175000 0.400000
v 0.850000 1.175000 0.400000
v 0.850000 -1.175000 -0.400000
v 0.850000 1.175000 -0.400000
vn -1.0000 -0.0000 -0.0000
vn -0.0000 -0.0000 -1.0000
vn 1.0000 -0.0000 -0.0000
vn -0.0000 -0.0000 1.0000
vn -0.0000 -1.0000 -0.0000
vn -0.0000 1.0000 -0.0000
vt 0.375000 0.000000
vt 0.625000 0.000000
vt 0.625000 0.250000
vt 0.375000 0.250000
vt 0.625000 0.500000
vt 0.375000 0.500000
vt 0.625000 0.750000
vt 0.375000 0.750000
vt 0.625000 1.000000
vt 0.375000 1.000000
vt 0.125000 0.500000
vt 0.125000 0.750000
vt 0.875000 0.500000
vt 0.875000 0.750000
s 0
usemtl yamato_armor
f 1/1/1 2/2/1 4/3/1 3/4/1
f 3/4/2 4/3/2 8/5/2 7/6/2
f 7/6/3 8/5/3 6/7/3 5/8/3
f 5/8/4 6/7/4 2/9/4 1/10/4
f 3/11/5 7/6/5 5/8/5 1/12/5
f 8/5/6 4/13/6 2/14/6 6/7/6
o battery_red_belt
v -0.890000 -0.975000 0.410000
v -0.890000 1.075000 0.410000
v -0.890000 -0.975000 0.270000
v -0.890000 1.075000 0.270000
v 0.890000 -0.975000 0.410000
v 0.890000 1.075000 0.410000
v 0.890000 -0.975000 0.270000
v 0.890000 1.075000 0.270000
vn -1.0000 -0.0000 -0.0000
vn -0.0000 -0.0000 -1.0000
vn 1.0000 -0.0000 -0.0000
vn -0.0000 -0.0000 1.0000
vn -0.0000 -1.0000 -0.0000
vn -0.0000 1.0000 -0.0000
vt 0.375000 0.000000
vt 0.625000 0.000000
vt 0.625000 0.250000
vt 0.375000 0.250000
vt 0.625000 0.500000
vt 0.375000 0.500000
vt 0.625000 0.750000
vt 0.375000 0.750000
vt 0.625000 1.000000
vt 0.375000 1.000000
vt 0.125000 0.500000
vt 0.125000 0.750000
vt 0.875000 0.500000
vt 0.875000 0.750000
s 0
usemtl yamato_red
f 9/15/7 10/16/7 12/17/7 11/18/7
f 11/18/8 12/17/8 16/19/8 15/20/8
f 15/20/9 16/19/9 14/21/9 13/22/9
f 13/22/10 14/21/10 10/23/10 9/24/10
f 11/25/11 15/20/11 13/22/11 9/26/11
f 16/19/12 12/27/12 10/28/12 14/21/12
o battery_turret
v -0.525000 -0.630000 -0.270000
v -0.525000 0.270000 -0.270000
v -0.525000 -0.630000 -0.690000
v -0.525000 0.270000 -0.690000
v 0.525000 -0.630000 -0.270000
v 0.525000 0.270000 -0.270000
v 0.525000 -0.630000 -0.690000
v 0.525000 0.270000 -0.690000
vn -1.0000 -0.0000 -0.0000
vn -0.0000 -0.0000 -1.0000
vn 1.0000 -0.0000 -0.0000
vn -0.0000 -0.0000 1.0000
vn -0.0000 -1.0000 -0.0000
vn -0.0000 1.0000 -0.0000
vt 0.375000 0.000000
vt 0.625000 0.000000
vt 0.625000 0.250000
vt 0.375000 0.250000
vt 0.625000 0.500000
vt 0.375000 0.500000
vt 0.625000 0.750000
vt 0.375000 0.750000
vt 0.625000 1.000000
vt 0.375000 1.000000
vt 0.125000 0.500000
vt 0.125000 0.750000
vt 0.875000 0.500000
vt 0.875000 0.750000
s 0
usemtl yamato_armor
f 17/29/13 18/30/13 20/31/13 19/32/13
f 19/32/14 20/31/14 24/33/14 23/34/14
f 23/34/15 24/33/15 22/35/15 21/36/15
f 21/36/16 22/35/16 18/37/16 17/38/16
f 19/39/17 23/34/17 21/36/17 17/40/17
f 24/33/18 20/41/18 18/42/18 22/35/18
o battery_barrel_-0.34
v -0.340000 -0.900000 -1.245000
v -0.340000 -0.900000 0.105000
v -0.317039 -0.904567 -1.245000
v -0.317039 -0.904567 0.105000
v -0.297574 -0.917574 -1.245000
v -0.297574 -0.917574 0.105000
v -0.284567 -0.937039 -1.245000
v -0.284567 -0.937039 0.105000
v -0.280000 -0.960000 -1.245000
v -0.280000 -0.960000 0.105000
v -0.284567 -0.982961 -1.245000
v -0.284567 -0.982961 0.105000
v -0.297574 -1.002426 -1.245000
v -0.297574 -1.002426 0.105000
v -0.317039 -1.015433 -1.245000
v -0.317039 -1.015433 0.105000
v -0.340000 -1.020000 -1.245000
v -0.340000 -1.020000 0.105000
v -0.362961 -1.015433 -1.245000
v -0.362961 -1.015433 0.105000
v -0.382427 -1.002426 -1.245000
v -0.382427 -1.002426 0.105000
v -0.395433 -0.982961 -1.245000
v -0.395433 -0.982961 0.105000
v -0.400000 -0.960000 -1.245000
v -0.400000 -0.960000 0.105000
v -0.395433 -0.937039 -1.245000
v -0.395433 -0.937039 0.105000
v -0.382427 -0.917574 -1.245000
v -0.382427 -0.917574 0.105000
v -0.362961 -0.904567 -1.245000
v -0.362961 -0.904567 0.105000
vn 0.1951 0.9808 -0.0000
vn 0.5556 0.8315 -0.0000
vn 0.8315 0.5556 -0.0000
vn 0.9808 0.1951 -0.0000
vn 0.9808 -0.1951 -0.0000
vn 0.8315 -0.5556 -0.0000
vn 0.5556 -0.8315 -0.0000
vn 0.1951 -0.9808 -0.0000
vn -0.1951 -0.9808 -0.0000
vn -0.5556 -0.8315 -0.0000
vn -0.8315 -0.5556 -0.0000
vn -0.9808 -0.1951 -0.0000
vn -0.9808 0.1951 -0.0000
vn -0.8315 0.5556 -0.0000
vn -0.0000 -0.0000 1.0000
vn -0.5556 0.8315 -0.0000
vn -0.1951 0.9808 -0.0000
vn -0.0000 -0.0000 -1.0000
vt 1.000000 0.500000
vt 1.000000 1.000000
vt 0.937500 1.000000
vt 0.937500 0.500000
vt 0.875000 1.000000
vt 0.875000 0.500000
vt 0.812500 1.000000
vt 0.812500 0.500000
vt 0.750000 1.000000
vt 0.750000 0.500000
vt 0.687500 1.000000
vt 0.687500 0.500000
vt 0.625000 1.000000
vt 0.625000 0.500000
vt 0.562500 1.000000
vt 0.562500 0.500000
vt 0.500000 1.000000
vt 0.500000 0.500000
vt 0.437500 1.000000
vt 0.437500 0.500000
vt 0.375000 1.000000
vt 0.375000 0.500000
vt 0.312500 1.000000
vt 0.312500 0.500000
vt 0.250000 1.000000
vt 0.250000 0.500000
vt 0.187500 1.000000
vt 0.187500 0.500000
vt 0.125000 1.000000
vt 0.125000 0.500000
vt 0.341844 0.471731
vt 0.250000 0.490000
vt 0.158156 0.471731
vt 0.080294 0.419706
vt 0.028269 0.341844
vt 0.010000 0.250000
vt 0.028269 0.158156
vt 0.080294 0.080294
vt 0.158156 0.028269
vt 0.250000 0.010000
vt 0.341844 0.028269
vt 0.419706 0.080294
vt 0.471731 0.158156
vt 0.490000 0.250000
vt 0.471731 0.341844
vt 0.419706 0.419706
vt 0.062500 1.000000
vt 0.062500 0.500000
vt 0.000000 1.000000
vt 0.000000 0.500000
vt 0.750000 0.490000
vt 0.841844 0.471731
vt 0.919706 0.419706
vt 0.971731 0.341844
vt 0.990000 0.250000
vt 0.971731 0.158156
vt 0.919706 0.080294
vt 0.841844 0.028269
vt 0.750000 0.010000
vt 0.658156 0.028269
vt 0.580294 0.080294
vt 0.528269 0.158156
vt 0.510000 0.250000
vt 0.528269 0.341844
vt 0.580294 0.419706
vt 0.658156 0.471731
s 0
usemtl yamato_dark
f 25/43/19 26/44/19 28/45/19 27/46/19
f 27/46/20 28/45/20 30/47/20 29/48/20
f 29/48/21 30/47/21 32/49/21 31/50/21
f 31/50/22 32/49/22 34/51/22 33/52/22
f 33/52/23 34/51/23 36/53/23 35/54/23
f 35/54/24 36/53/24 38/55/24 37/56/24
f 37/56/25 38/55/25 40/57/25 39/58/25
f 39/58/26 40/57/26 42/59/26 41/60/26
f 41/60/27 42/59/27 44/61/27 43/62/27
f 43/62/28 44/61/28 46/63/28 45/64/28
f 45/64/29 46/63/29 48/65/29 47/66/29
f 47/66/30 48/65/30 50/67/30 49/68/30
f 49/68/31 50/67/31 52/69/31 51/70/31
f 51/70/32 52/69/32 54/71/32 53/72/32
f 28/73/33 26/74/33 56/75/33 54/76/33 52/77/33 50/78/33 48/79/33 46/80/33 44/81/33 42/82/33 40/83/33 38/84/33 36/85/33 34/86/33 32/87/33 30/88/33
f 53/72/34 54/71/34 56/89/34 55/90/34
f 55/90/35 56/89/35 26/91/35 25/92/35
f 25/93/36 27/94/36 29/95/36 31/96/36 33/97/36 35/98/36 37/99/36 39/100/36 41/101/36 43/102/36 45/103/36 47/104/36 49/105/36 51/106/36 53/107/36 55/108/36
o battery_barrel_0.0
v 0.000000 -0.900000 -1.245000
v 0.000000 -0.900000 0.105000
v 0.022961 -0.904567 -1.245000
v 0.022961 -0.904567 0.105000
v 0.042426 -0.917574 -1.245000
v 0.042426 -0.917574 0.105000
v 0.055433 -0.937039 -1.245000
v 0.055433 -0.937039 0.105000
v 0.060000 -0.960000 -1.245000
v 0.060000 -0.960000 0.105000
v 0.055433 -0.982961 -1.245000
v 0.055433 -0.982961 0.105000
v 0.042426 -1.002426 -1.245000
v 0.042426 -1.002426 0.105000
v 0.022961 -1.015433 -1.245000
v 0.022961 -1.015433 0.105000
v 0.000000 -1.020000 -1.245000
v 0.000000 -1.020000 0.105000
v -0.022961 -1.015433 -1.245000
v -0.022961 -1.015433 0.105000
v -0.042426 -1.002426 -1.245000
v -0.042426 -1.002426 0.105000
v -0.055433 -0.982961 -1.245000
v -0.055433 -0.982961 0.105000
v -0.060000 -0.960000 -1.245000
v -0.060000 -0.960000 0.105000
v -0.055433 -0.937039 -1.245000
v -0.055433 -0.937039 0.105000
v -0.042426 -0.917574 -1.245000
v -0.042426 -0.917574 0.105000
v -0.022961 -0.904567 -1.245000
v -0.022961 -0.904567 0.105000
vn 0.1951 0.9808 -0.0000
vn 0.5556 0.8315 -0.0000
vn 0.8315 0.5556 -0.0000
vn 0.9808 0.1951 -0.0000
vn 0.9808 -0.1951 -0.0000
vn 0.8315 -0.5556 -0.0000
vn 0.5556 -0.8315 -0.0000
vn 0.1951 -0.9808 -0.0000
vn -0.1951 -0.9808 -0.0000
vn -0.5556 -0.8315 -0.0000
vn -0.8315 -0.5556 -0.0000
vn -0.9808 -0.1951 -0.0000
vn -0.9808 0.1951 -0.0000
vn -0.8315 0.5556 -0.0000
vn -0.0000 -0.0000 1.0000
vn -0.5556 0.8315 -0.0000
vn -0.1951 0.9808 -0.0000
vn -0.0000 -0.0000 -1.0000
vt 1.000000 0.500000
vt 1.000000 1.000000
vt 0.937500 1.000000
vt 0.937500 0.500000
vt 0.875000 1.000000
vt 0.875000 0.500000
vt 0.812500 1.000000
vt 0.812500 0.500000
vt 0.750000 1.000000
vt 0.750000 0.500000
vt 0.687500 1.000000
vt 0.687500 0.500000
vt 0.625000 1.000000
vt 0.625000 0.500000
vt 0.562500 1.000000
vt 0.562500 0.500000
vt 0.500000 1.000000
vt 0.500000 0.500000
vt 0.437500 1.000000
vt 0.437500 0.500000
vt 0.375000 1.000000
vt 0.375000 0.500000
vt 0.312500 1.000000
vt 0.312500 0.500000
vt 0.250000 1.000000
vt 0.250000 0.500000
vt 0.187500 1.000000
vt 0.187500 0.500000
vt 0.125000 1.000000
vt 0.125000 0.500000
vt 0.341844 0.471731
vt 0.250000 0.490000
vt 0.158156 0.471731
vt 0.080294 0.419706
vt 0.028269 0.341844
vt 0.010000 0.250000
vt 0.028269 0.158156
vt 0.080294 0.080294
vt 0.158156 0.028269
vt 0.250000 0.010000
vt 0.341844 0.028269
vt 0.419706 0.080294
vt 0.471731 0.158156
vt 0.490000 0.250000
vt 0.471731 0.341844
vt 0.419706 0.419706
vt 0.062500 1.000000
vt 0.062500 0.500000
vt 0.000000 1.000000
vt 0.000000 0.500000
vt 0.750000 0.490000
vt 0.841844 0.471731
vt 0.919706 0.419706
vt 0.971731 0.341844
vt 0.990000 0.250000
vt 0.971731 0.158156
vt 0.919706 0.080294
vt 0.841844 0.028269
vt 0.750000 0.010000
vt 0.658156 0.028269
vt 0.580294 0.080294
vt 0.528269 0.158156
vt 0.510000 0.250000
vt 0.528269 0.341844
vt 0.580294 0.419706
vt 0.658156 0.471731
s 0
usemtl yamato_dark
f 57/109/37 58/110/37 60/111/37 59/112/37
f 59/112/38 60/111/38 62/113/38 61/114/38
f 61/114/39 62/113/39 64/115/39 63/116/39
f 63/116/40 64/115/40 66/117/40 65/118/40
f 65/118/41 66/117/41 68/119/41 67/120/41
f 67/120/42 68/119/42 70/121/42 69/122/42
f 69/122/43 70/121/43 72/123/43 71/124/43
f 71/124/44 72/123/44 74/125/44 73/126/44
f 73/126/45 74/125/45 76/127/45 75/128/45
f 75/128/46 76/127/46 78/129/46 77/130/46
f 77/130/47 78/129/47 80/131/47 79/132/47
f 79/132/48 80/131/48 82/133/48 81/134/48
f 81/134/49 82/133/49 84/135/49 83/136/49
f 83/136/50 84/135/50 86/137/50 85/138/50
f 60/139/51 58/140/51 88/141/51 86/142/51 84/143/51 82/144/51 80/145/51 78/146/51 76/147/51 74/148/51 72/149/51 70/150/51 68/151/51 66/152/51 64/153/51 62/154/51
f 85/138/52 86/137/52 88/155/52 87/156/52
f 87/156/53 88/155/53 58/157/53 57/158/53
f 57/159/54 59/160/54 61/161/54 63/162/54 65/163/54 67/164/54 69/165/54 71/166/54 73/167/54 75/168/54 77/169/54 79/170/54 81/171/54 83/172/54 85/173/54 87/174/54
o battery_barrel_0.34
v 0.340000 -0.900000 -1.245000
v 0.340000 -0.900000 0.105000
v 0.362961 -0.904567 -1.245000
v 0.362961 -0.904567 0.105000
v 0.382427 -0.917574 -1.245000
v 0.382427 -0.917574 0.105000
v 0.395433 -0.937039 -1.245000
v 0.395433 -0.937039 0.105000
v 0.400000 -0.960000 -1.245000
v 0.400000 -0.960000 0.105000
v 0.395433 -0.982961 -1.245000
v 0.395433 -0.982961 0.105000
v 0.382427 -1.002426 -1.245000
v 0.382427 -1.002426 0.105000
v 0.362961 -1.015433 -1.245000
v 0.362961 -1.015433 0.105000
v 0.340000 -1.020000 -1.245000
v 0.340000 -1.020000 0.105000
v 0.317039 -1.015433 -1.245000
v 0.317039 -1.015433 0.105000
v 0.297574 -1.002426 -1.245000
v 0.297574 -1.002426 0.105000
v 0.284567 -0.982961 -1.245000
v 0.284567 -0.982961 0.105000
v 0.280000 -0.960000 -1.245000
v 0.280000 -0.960000 0.105000
v 0.284567 -0.937039 -1.245000
v 0.284567 -0.937039 0.105000
v 0.297574 -0.917574 -1.245000
v 0.297574 -0.917574 0.105000
v 0.317039 -0.904567 -1.245000
v 0.317039 -0.904567 0.105000
vn 0.1951 0.9808 -0.0000
vn 0.5556 0.8315 -0.0000
vn 0.8315 0.5556 -0.0000
vn 0.9808 0.1951 -0.0000
vn 0.9808 -0.1951 -0.0000
vn 0.8315 -0.5556 -0.0000
vn 0.5556 -0.8315 -0.0000
vn 0.1951 -0.9808 -0.0000
vn -0.1951 -0.9808 -0.0000
vn -0.5556 -0.8315 -0.0000
vn -0.8315 -0.5556 -0.0000
vn -0.9808 -0.1951 -0.0000
vn -0.9808 0.1951 -0.0000
vn -0.8315 0.5556 -0.0000
vn -0.0000 -0.0000 1.0000
vn -0.5556 0.8315 -0.0000
vn -0.1951 0.9808 -0.0000
vn -0.0000 -0.0000 -1.0000
vt 1.000000 0.500000
vt 1.000000 1.000000
vt 0.937500 1.000000
vt 0.937500 0.500000
vt 0.875000 1.000000
vt 0.875000 0.500000
vt 0.812500 1.000000
vt 0.812500 0.500000
vt 0.750000 1.000000
vt 0.750000 0.500000
vt 0.687500 1.000000
vt 0.687500 0.500000
vt 0.625000 1.000000
vt 0.625000 0.500000
vt 0.562500 1.000000
vt 0.562500 0.500000
vt 0.500000 1.000000
vt 0.500000 0.500000
vt 0.437500 1.000000
vt 0.437500 0.500000
vt 0.375000 1.000000
vt 0.375000 0.500000
vt 0.312500 1.000000
vt 0.312500 0.500000
vt 0.250000 1.000000
vt 0.250000 0.500000
vt 0.187500 1.000000
vt 0.187500 0.500000
vt 0.125000 1.000000
vt 0.125000 0.500000
vt 0.341844 0.471731
vt 0.250000 0.490000
vt 0.158156 0.471731
vt 0.080294 0.419706
vt 0.028269 0.341844
vt 0.010000 0.250000
vt 0.028269 0.158156
vt 0.080294 0.080294
vt 0.158156 0.028269
vt 0.250000 0.010000
vt 0.341844 0.028269
vt 0.419706 0.080294
vt 0.471731 0.158156
vt 0.490000 0.250000
vt 0.471731 0.341844
vt 0.419706 0.419706
vt 0.062500 1.000000
vt 0.062500 0.500000
vt 0.000000 1.000000
vt 0.000000 0.500000
vt 0.750000 0.490000
vt 0.841844 0.471731
vt 0.919706 0.419706
vt 0.971731 0.341844
vt 0.990000 0.250000
vt 0.971731 0.158156
vt 0.919706 0.080294
vt 0.841844 0.028269
vt 0.750000 0.010000
vt 0.658156 0.028269
vt 0.580294 0.080294
vt 0.528269 0.158156
vt 0.510000 0.250000
vt 0.528269 0.341844
vt 0.580294 0.419706
vt 0.658156 0.471731
s 0
usemtl yamato_dark
f 89/175/55 90/176/55 92/177/55 91/178/55
f 91/178/56 92/177/56 94/179/56 93/180/56
f 93/180/57 94/179/57 96/181/57 95/182/57
f 95/182/58 96/181/58 98/183/58 97/184/58
f 97/184/59 98/183/59 100/185/59 99/186/59
f 99/186/60 100/185/60 102/187/60 101/188/60
f 101/188/61 102/187/61 104/189/61 103/190/61
f 103/190/62 104/189/62 106/191/62 105/192/62
f 105/192/63 106/191/63 108/193/63 107/194/63
f 107/194/64 108/193/64 110/195/64 109/196/64
f 109/196/65 110/195/65 112/197/65 111/198/65
f 111/198/66 112/197/66 114/199/66 113/200/66
f 113/200/67 114/199/67 116/201/67 115/202/67
f 115/202/68 116/201/68 118/203/68 117/204/68
f 92/205/69 90/206/69 120/207/69 118/208/69 116/209/69 114/210/69 112/211/69 110/212/69 108/213/69 106/214/69 104/215/69 102/216/69 100/217/69 98/218/69 96/219/69 94/220/69
f 117/204/70 118/203/70 120/221/70 119/222/70
f 119/222/71 120/221/71 90/223/71 89/224/71
f 89/225/72 91/226/72 93/227/72 95/228/72 97/229/72 99/230/72 101/231/72 103/232/72 105/233/72 107/234/72 109/235/72 111/236/72 113/237/72 115/238/72 117/239/72 119/240/72
o battery_muzzle_glow
v 0.000000 -1.700000 -0.750000
v 0.000000 -1.620000 -0.750000
v 0.046587 -1.700000 -0.743867
v 0.046587 -1.620000 -0.743867
v 0.090000 -1.700000 -0.725885
v 0.090000 -1.620000 -0.725885
v 0.127279 -1.700000 -0.697279
v 0.127279 -1.620000 -0.697279
v 0.155885 -1.700000 -0.660000
v 0.155885 -1.620000 -0.660000
v 0.173867 -1.700000 -0.616587
v 0.173867 -1.620000 -0.616587
v 0.180000 -1.700000 -0.570000
v 0.180000 -1.620000 -0.570000
v 0.173867 -1.700000 -0.523413
v 0.173867 -1.620000 -0.523413
v 0.155885 -1.700000 -0.480000
v 0.155885 -1.620000 -0.480000
v 0.127279 -1.700000 -0.442721
v 0.127279 -1.620000 -0.442721
v 0.090000 -1.700000 -0.414115
v 0.090000 -1.620000 -0.414115
v 0.046587 -1.700000 -0.396133
v 0.046587 -1.620000 -0.396133
v 0.000000 -1.700000 -0.390000
v 0.000000 -1.620000 -0.390000
v -0.046587 -1.700000 -0.396133
v -0.046587 -1.620000 -0.396133
v -0.090000 -1.700000 -0.414115
v -0.090000 -1.620000 -0.414115
v -0.127279 -1.700000 -0.442721
v -0.127279 -1.620000 -0.442721
v -0.155885 -1.700000 -0.480000
v -0.155885 -1.620000 -0.480000
v -0.173867 -1.700000 -0.523413
v -0.173867 -1.620000 -0.523413
v -0.180000 -1.700000 -0.570000
v -0.180000 -1.620000 -0.570000
v -0.173867 -1.700000 -0.616587
v -0.173867 -1.620000 -0.616587
v -0.155885 -1.700000 -0.660000
v -0.155885 -1.620000 -0.660000
v -0.127279 -1.700000 -0.697279
v -0.127279 -1.620000 -0.697279
v -0.090000 -1.700000 -0.725885
v -0.090000 -1.620000 -0.725885
v -0.046587 -1.700000 -0.743867
v -0.046587 -1.620000 -0.743867
vn 0.1305 -0.0000 -0.9914
vn 0.3827 -0.0000 -0.9239
vn 0.6088 -0.0000 -0.7934
vn 0.7934 -0.0000 -0.6088
vn 0.9239 -0.0000 -0.3827
vn 0.9914 -0.0000 -0.1305
vn 0.9914 -0.0000 0.1305
vn 0.9239 -0.0000 0.3827
vn 0.7934 -0.0000 0.6088
vn 0.6088 -0.0000 0.7934
vn 0.3827 -0.0000 0.9239
vn 0.1305 -0.0000 0.9914
vn -0.1305 -0.0000 0.9914
vn -0.3827 -0.0000 0.9239
vn -0.6088 -0.0000 0.7934
vn -0.7934 -0.0000 0.6088
vn -0.9239 -0.0000 0.3827
vn -0.9914 -0.0000 0.1305
vn -0.9914 -0.0000 -0.1305
vn -0.9239 -0.0000 -0.3827
vn -0.7934 -0.0000 -0.6088
vn -0.6088 -0.0000 -0.7934
vn -0.0000 1.0000 -0.0000
vn -0.3827 -0.0000 -0.9239
vn -0.1305 -0.0000 -0.9914
vn -0.0000 -1.0000 -0.0000
vt 1.000000 0.500000
vt 1.000000 1.000000
vt 0.958333 1.000000
vt 0.958333 0.500000
vt 0.916667 1.000000
vt 0.916667 0.500000
vt 0.875000 1.000000
vt 0.875000 0.500000
vt 0.833333 1.000000
vt 0.833333 0.500000
vt 0.791667 1.000000
vt 0.791667 0.500000
vt 0.750000 1.000000
vt 0.750000 0.500000
vt 0.708333 1.000000
vt 0.708333 0.500000
vt 0.666667 1.000000
vt 0.666667 0.500000
vt 0.625000 1.000000
vt 0.625000 0.500000
vt 0.583333 1.000000
vt 0.583333 0.500000
vt 0.541666 1.000000
vt 0.541666 0.500000
vt 0.500000 1.000000
vt 0.500000 0.500000
vt 0.458333 1.000000
vt 0.458333 0.500000
vt 0.416666 1.000000
vt 0.416666 0.500000
vt 0.375000 1.000000
vt 0.375000 0.500000
vt 0.333333 1.000000
vt 0.333333 0.500000
vt 0.291667 1.000000
vt 0.291667 0.500000
vt 0.250000 1.000000
vt 0.250000 0.500000
vt 0.208333 1.000000
vt 0.208333 0.500000
vt 0.166666 1.000000
vt 0.166666 0.500000
vt 0.125000 1.000000
vt 0.125000 0.500000
vt 0.083333 1.000000
vt 0.083333 0.500000
vt 0.312117 0.481822
vt 0.250000 0.490000
vt 0.187883 0.481822
vt 0.130000 0.457846
vt 0.080294 0.419706
vt 0.042154 0.370000
vt 0.018178 0.312117
vt 0.010000 0.250000
vt 0.018178 0.187883
vt 0.042154 0.130000
vt 0.080294 0.080294
vt 0.130000 0.042154
vt 0.187883 0.018178
vt 0.250000 0.010000
vt 0.312117 0.018178
vt 0.370000 0.042154
vt 0.419706 0.080294
vt 0.457846 0.130000
vt 0.481822 0.187883
vt 0.490000 0.250000
vt 0.481822 0.312117
vt 0.457846 0.370000
vt 0.419706 0.419706
vt 0.370000 0.457846
vt 0.041666 1.000000
vt 0.041666 0.500000
vt -0.000000 1.000000
vt -0.000000 0.500000
vt 0.750000 0.490000
vt 0.812117 0.481822
vt 0.870000 0.457846
vt 0.919706 0.419706
vt 0.957846 0.370000
vt 0.981822 0.312117
vt 0.990000 0.250000
vt 0.981822 0.187883
vt 0.957846 0.130000
vt 0.919706 0.080294
vt 0.870000 0.042154
vt 0.812117 0.018178
vt 0.750000 0.010000
vt 0.687883 0.018178
vt 0.630000 0.042154
vt 0.580294 0.080294
vt 0.542154 0.130000
vt 0.518178 0.187883
vt 0.510000 0.250000
vt 0.518178 0.312117
vt 0.542154 0.370000
vt 0.580294 0.419706
vt 0.630000 0.457846
vt 0.687883 0.481822
s 0
usemtl battery_muzzle_glow
f 121/241/73 122/242/73 124/243/73 123/244/73
f 123/244/74 124/243/74 126/245/74 125/246/74
f 125/246/75 126/245/75 128/247/75 127/248/75
f 127/248/76 128/247/76 130/249/76 129/250/76
f 129/250/77 130/249/77 132/251/77 131/252/77
f 131/252/78 132/251/78 134/253/78 133/254/78
f 133/254/79 134/253/79 136/255/79 135/256/79
f 135/256/80 136/255/80 138/257/80 137/258/80
f 137/258/81 138/257/81 140/259/81 139/260/81
f 139/260/82 140/259/82 142/261/82 141/262/82
f 141/262/83 142/261/83 144/263/83 143/264/83
f 143/264/84 144/263/84 146/265/84 145/266/84
f 145/266/85 146/265/85 148/267/85 147/268/85
f 147/268/86 148/267/86 150/269/86 149/270/86
f 149/270/87 150/269/87 152/271/87 151/272/87
f 151/272/88 152/271/88 154/273/88 153/274/88
f 153/274/89 154/273/89 156/275/89 155/276/89
f 155/276/90 156/275/90 158/277/90 157/278/90
f 157/278/91 158/277/91 160/279/91 159/280/91
f 159/280/92 160/279/92 162/281/92 161/282/92
f 161/282/93 162/281/93 164/283/93 163/284/93
f 163/284/94 164/283/94 166/285/94 165/286/94
f 124/287/95 122/288/95 168/289/95 166/290/95 164/291/95 162/292/95 160/293/95 158/294/95 156/295/95 154/296/95 152/297/95 150/298/95 148/299/95 146/300/95 144/301/95 142/302/95 140/303/95 138/304/95 136/305/95 134/306/95 132/307/95 130/308/95 128/309/95 126/310/95
f 165/286/96 166/285/96 168/311/96 167/312/96
f 167/312/97 168/311/97 122/313/97 121/314/97
f 121/315/98 123/316/98 125/317/98 127/318/98 129/319/98 131/320/98 133/321/98 135/322/98 137/323/98 139/324/98 141/325/98 143/326/98 145/327/98 147/328/98 149/329/98 151/330/98 153/331/98 155/332/98 157/333/98 159/334/98 161/335/98 163/336/98 165/337/98 167/338/98
