# Blender 4.2.0
# www.blender.org
mtllib boss_yamato_hull.mtl
o bow_wave_cannon_hull
v -1.700000 -3.600000 0.620000
v 1.700000 -3.600000 0.620000
v 1.700000 -3.600000 -0.620000
v -1.700000 -3.600000 -0.620000
v 0.000000 -6.450000 0.450000
v 0.000000 -6.450000 -0.520000
vn -0.0000 1.0000 -0.0000
vn -0.0000 -0.0351 -0.9994
vn -0.0000 -0.0595 0.9982
vn -0.8588 -0.5123 -0.0000
vn 0.8588 -0.5123 -0.0000
s 0
usemtl yamato_armor
f 1//1 2//1 3//1 4//1
f 4//2 3//2 6//2
f 1//3 5//3 2//3
f 1//4 4//4 6//4 5//4
f 2//5 5//5 6//5 3//5
o central_armor_hull
v -1.900000 -3.550000 0.685000
v -1.900000 5.350000 0.685000
v -1.900000 -3.550000 -0.565000
v -1.900000 5.350000 -0.565000
v 1.900000 -3.550000 0.685000
v 1.900000 5.350000 0.685000
v 1.900000 -3.550000 -0.565000
v 1.900000 5.350000 -0.565000
vn -1.0000 -0.0000 -0.0000
vn -0.0000 -0.0000 -1.0000
vn 1.0000 -0.0000 -0.0000
vn -0.0000 -0.0000 1.0000
vn -0.0000 -1.0000 -0.0000
vn -0.0000 1.0000 -0.0000
vt 0.375000 0.000000
vt 0.625000 0.000000
vt 0.625000 0.250000
vt 0.375000 0.250000
vt 0.625000 0.500000
vt 0.375000 0.500000
vt 0.625000 0.750000
vt 0.375000 0.750000
vt 0.625000 1.000000
vt 0.375000 1.000000
vt 0.125000 0.500000
vt 0.125000 0.750000
vt 0.875000 0.500000
vt 0.875000 0.750000
s 0
usemtl yamato_armor
f 7/1/6 8/2/6 10/3/6 9/4/6
f 9/4/7 10/3/7 14/5/7 13/6/7
f 13/6/8 14/5/8 12/7/8 11/8/8
f 11/8/9 12/7/9 8/9/9 7/10/9
f 9/11/10 13/6/10 11/8/10 7/12/10
f 14/5/11 10/13/11 8/14/11 12/7/11
o keel_red_belt
v -1.960000 -3.300000 0.600000
v -1.960000 5.100000 0.600000
v -1.960000 -3.300000 0.360000
v -1.960000 5.100000 0.360000
v 1.960000 -3.300000 0.600000
v 1.960000 5.100000 0.600000
v 1.960000 -3.300000 0.360000
v 1.960000 5.100000 0.360000
vn -1.0000 -0.0000 -0.0000
vn -0.0000 -0.0000 -1.0000
vn 1.0000 -0.0000 -0.0000
vn -0.0000 -0.0000 1.0000
vn -0.0000 -1.0000 -0.0000
vn -0.0000 1.0000 -0.0000
vt 0.375000 0.000000
vt 0.625000 0.000000
vt 0.625000 0.250000
vt 0.375000 0.250000
vt 0.625000 0.500000
vt 0.375000 0.500000
vt 0.625000 0.750000
vt 0.375000 0.750000
vt 0.625000 1.000000
vt 0.375000 1.000000
vt 0.125000 0.500000
vt 0.125000 0.750000
vt 0.875000 0.500000
vt 0.875000 0.750000
s 0
usemtl yamato_red
f 15/15/12 16/16/12 18/17/12 17/18/12
f 17/18/13 18/17/13 22/19/13 21/20/13
f 21/20/14 22/19/14 20/21/14 19/22/14
f 19/22/15 20/21/15 16/23/15 15/24/15
f 17/25/16 21/20/16 19/22/16 15/26/16
f 22/19/17 18/27/17 16/28/17 20/21/17
o upper_deck
v -1.275000 -3.450000 -0.595000
v -1.275000 3.250000 -0.595000
v -1.275000 -3.450000 -0.845000
v -1.275000 3.250000 -0.845000
v 1.275000 -3.450000 -0.595000
v 1.275000 3.250000 -0.595000
v 1.275000 -3.450000 -0.845000
v 1.275000 3.250000 -0.845000
vn -1.0000 -0.0000 -0.0000
vn -0.0000 -0.0000 -1.0000
vn 1.0000 -0.0000 -0.0000
vn -0.0000 -0.0000 1.0000
vn -0.0000 -1.0000 -0.0000
vn -0.0000 1.0000 -0.0000
vt 0.375000 0.000000
vt 0.625000 0.000000
vt 0.625000 0.250000
vt 0.375000 0.250000
vt 0.625000 0.500000
vt 0.375000 0.500000
vt 0.625000 0.750000
vt 0.375000 0.750000
vt 0.625000 1.000000
vt 0.375000 1.000000
vt 0.125000 0.500000
vt 0.125000 0.750000
vt 0.875000 0.500000
vt 0.875000 0.750000
s 0
usemtl yamato_deck
f 23/29/18 24/30/18 26/31/18 25/32/18
f 25/32/19 26/31/19 30/33/19 29/34/19
f 29/34/20 30/33/20 28/35/20 27/36/20
f 27/36/21 28/35/21 24/37/21 23/38/21
f 25/39/22 29/34/22 27/36/22 23/40/22
f 30/33/23 26/41/23 24/42/23 28/35/23
o bridge_base
v -0.660000 -0.225000 -0.755000
v -0.660000 1.125000 -0.755000
v -0.660000 -0.225000 -1.305000
v -0.660000 1.125000 -1.305000
v 0.660000 -0.225000 -0.755000
v 0.660000 1.125000 -0.755000
v 0.660000 -0.225000 -1.305000
v 0.660000 1.125000 -1.305000
vn -1.0000 -0.0000 -0.0000
vn -0.0000 -0.0000 -1.0000
vn 1.0000 -0.0000 -0.0000
vn -0.0000 -0.0000 1.0000
vn -0.0000 -1.0000 -0.0000
vn -0.0000 1.0000 -0.0000
vt 0.375000 0.000000
vt 0.625000 0.000000
vt 0.625000 0.250000
vt 0.375000 0.250000
vt 0.625000 0.500000
vt 0.375000 0.500000
vt 0.625000 0.750000
vt 0.375000 0.750000
vt 0.625000 1.000000
vt 0.375000 1.000000
vt 0.125000 0.500000
vt 0.125000 0.750000
vt 0.875000 0.500000
vt 0.875000 0.750000
s 0
usemtl yamato_armor
f 31/43/24 32/44/24 34/45/24 33/46/24
f 33/46/25 34/45/25 38/47/25 37/48/25
f 37/48/26 38/47/26 36/49/26 35/50/26
f 35/50/27 36/49/27 32/51/27 31/52/27
f 33/53/28 37/48/28 35/50/28 31/54/28
f 38/47/29 34/55/29 32/56/29 36/49/29
o bridge_tower
v -0.430000 0.110000 -1.160000
v -0.430000 0.990000 -1.160000
v -0.430000 0.110000 -1.780000
v -0.430000 0.990000 -1.780000
v 0.430000 0.110000 -1.160000
v 0.430000 0.990000 -1.160000
v 0.430000 0.110000 -1.780000
v 0.430000 0.990000 -1.780000
vn -1.0000 -0.0000 -0.0000
vn -0.0000 -0.0000 -1.0000
vn 1.0000 -0.0000 -0.0000
vn -0.0000 -0.0000 1.0000
vn -0.0000 -1.0000 -0.0000
vn -0.0000 1.0000 -0.0000
vt 0.375000 0.000000
vt 0.625000 0.000000
vt 0.625000 0.250000
vt 0.375000 0.250000
vt 0.625000 0.500000
vt 0.375000 0.500000
vt 0.625000 0.750000
vt 0.375000 0.750000
vt 0.625000 1.000000
vt 0.375000 1.000000
vt 0.125000 0.500000
vt 0.125000 0.750000
vt 0.875000 0.500000
vt 0.875000 0.750000
s 0
usemtl yamato_armor
f 39/57/30 40/58/30 42/59/30 41/60/30
f 41/60/31 42/59/31 46/61/31 45/62/31
f 45/62/32 46/61/32 44/63/32 43/64/32
f 43/64/33 44/63/33 40/65/33 39/66/33
f 41/67/34 45/62/34 43/64/34 39/68/34
f 46/61/35 42/69/35 40/70/35 44/63/35
o radar_block
v -0.525000 0.220000 -1.820000
v -0.525000 0.580000 -1.820000
v -0.525000 0.220000 -1.940000
v -0.525000 0.580000 -1.940000
v 0.525000 0.220000 -1.820000
v 0.525000 0.580000 -1.820000
v 0.525000 0.220000 -1.940000
v 0.525000 0.580000 -1.940000
vn -1.0000 -0.0000 -0.0000
vn -0.0000 -0.0000 -1.0000
vn 1.0000 -0.0000 -0.0000
vn -0.0000 -0.0000 1.0000
vn -0.0000 -1.0000 -0.0000
vn -0.0000 1.0000 -0.0000
vt 0.375000 0.000000
vt 0.625000 0.000000
vt 0.625000 0.250000
vt 0.375000 0.250000
vt 0.625000 0.500000
vt 0.375000 0.500000
vt 0.625000 0.750000
vt 0.375000 0.750000
vt 0.625000 1.000000
vt 0.375000 1.000000
vt 0.125000 0.500000
vt 0.125000 0.750000
vt 0.875000 0.500000
vt 0.875000 0.750000
s 0
usemtl yamato_dark
f 47/71/36 48/72/36 50/73/36 49/74/36
f 49/74/37 50/73/37 54/75/37 53/76/37
f 53/76/38 54/75/38 52/77/38 51/78/38
f 51/78/39 52/77/39 48/79/39 47/80/39
f 49/81/40 53/76/40 51/78/40 47/82/40
f 54/75/41 50/83/41 48/84/41 52/77/41
o wave_motion_muzzle
v 0.000000 -6.640000 -0.380000
v 0.000000 -6.460000 -0.380000
v 0.074134 -6.640000 -0.372698
v 0.074134 -6.460000 -0.372698
v 0.145420 -6.640000 -0.351074
v 0.145420 -6.460000 -0.351074
v 0.211117 -6.640000 -0.315958
v 0.211117 -6.460000 -0.315958
v 0.268701 -6.640000 -0.268701
v 0.268701 -6.460000 -0.268701
v 0.315958 -6.640000 -0.211117
v 0.315958 -6.460000 -0.211117
v 0.351074 -6.640000 -0.145420
v 0.351074 -6.460000 -0.145420
v 0.372698 -6.640000 -0.074134
v 0.372698 -6.460000 -0.074134
v 0.380000 -6.640000 0.000000
v 0.380000 -6.460000 0.000000
v 0.372698 -6.640000 0.074134
v 0.372698 -6.460000 0.074134
v 0.351074 -6.640000 0.145420
v 0.351074 -6.460000 0.145420
v 0.315958 -6.640000 0.211117
v 0.315958 -6.460000 0.211117
v 0.268701 -6.640000 0.268701
v 0.268701 -6.460000 0.268701
v 0.211117 -6.640000 0.315958
v 0.211117 -6.460000 0.315958
v 0.145420 -6.640000 0.351074
v 0.145420 -6.460000 0.351074
v 0.074134 -6.640000 0.372698
v 0.074134 -6.460000 0.372698
v 0.000000 -6.640000 0.380000
v 0.000000 -6.460000 0.380000
v -0.074134 -6.640000 0.372698
v -0.074134 -6.460000 0.372698
v -0.145420 -6.640000 0.351074
v -0.145420 -6.460000 0.351074
v -0.211117 -6.640000 0.315958
v -0.211117 -6.460000 0.315958
v -0.268701 -6.640000 0.268701
v -0.268701 -6.460000 0.268701
v -0.315958 -6.640000 0.211117
v -0.315958 -6.460000 0.211117
v -0.351074 -6.640000 0.145420
v -0.351074 -6.460000 0.145420
v -0.372698 -6.640000 0.074134
v -0.372698 -6.460000 0.074134
v -0.380000 -6.640000 0.000000
v -0.380000 -6.460000 0.000000
v -0.372698 -6.640000 -0.074134
v -0.372698 -6.460000 -0.074134
v -0.351074 -6.640000 -0.145420
v -0.351074 -6.460000 -0.145420
v -0.315958 -6.640000 -0.211117
v -0.315958 -6.460000 -0.211117
v -0.268701 -6.640000 -0.268701
v -0.268701 -6.460000 -0.268701
v -0.211117 -6.640000 -0.315958
v -0.211117 -6.460000 -0.315958
v -0.145420 -6.640000 -0.351074
v -0.145420 -6.460000 -0.351074
v -0.074134 -6.640000 -0.372698
v -0.074134 -6.460000 -0.372698
vn 0.0980 -0.0000 -0.9952
vn 0.2903 -0.0000 -0.9569
vn 0.4714 -0.0000 -0.8819
vn 0.6344 -0.0000 -0.7730
vn 0.7730 -0.0000 -0.6344
vn 0.8819 -0.0000 -0.4714
vn 0.9569 -0.0000 -0.2903
vn 0.9952 -0.0000 -0.0980
vn 0.9952 -0.0000 0.0980
vn 0.9569 -0.0000 0.2903
vn 0.8819 -0.0000 0.4714
vn 0.7730 -0.0000 0.6344
vn 0.6344 -0.0000 0.7730
vn 0.4714 -0.0000 0.8819
vn 0.2903 -0.0000 0.9569
vn 0.0980 -0.0000 0.9952
vn -0.0980 -0.0000 0.9952
vn -0.2903 -0.0000 0.9569
vn -0.4714 -0.0000 0.8819
vn -0.6344 -0.0000 0.7730
vn -0.7730 -0.0000 0.6344
vn -0.8819 -0.0000 0.4714
vn -0.9569 -0.0000 0.2903
vn -0.9952 -0.0000 0.0980
vn -0.9952 -0.0000 -0.0980
vn -0.9569 -0.0000 -0.2903
vn -0.8819 -0.0000 -0.4714
vn -0.7730 -0.0000 -0.6344
vn -0.6344 -0.0000 -0.7730
vn -0.4714 -0.0000 -0.8819
vn -0.0000 1.0000 -0.0000
vn -0.2903 -0.0000 -0.9569
vn -0.0980 -0.0000 -0.9952
vn -0.0000 -1.0000 -0.0000
vt 1.000000 0.500000
vt 1.000000 1.000000
vt 0.968750 1.000000
vt 0.968750 0.500000
vt 0.937500 1.000000
vt 0.937500 0.500000
vt 0.906250 1.000000
vt 0.906250 0.500000
vt 0.875000 1.000000
vt 0.875000 0.500000
vt 0.843750 1.000000
vt 0.843750 0.500000
vt 0.812500 1.000000
vt 0.812500 0.500000
vt 0.781250 1.000000
vt 0.781250 0.500000
vt 0.750000 1.000000
vt 0.750000 0.500000
vt 0.718750 1.000000
vt 0.718750 0.500000
vt 0.687500 1.000000
vt 0.687500 0.500000
vt 0.656250 1.000000
vt 0.656250 0.500000
vt 0.625000 1.000000
vt 0.625000 0.500000
vt 0.593750 1.000000
vt 0.593750 0.500000
vt 0.562500 1.000000
vt 0.562500 0.500000
vt 0.531250 1.000000
vt 0.531250 0.500000
vt 0.500000 1.000000
vt 0.500000 0.500000
vt 0.468750 1.000000
vt 0.468750 0.500000
vt 0.437500 1.000000
vt 0.437500 0.500000
vt 0.406250 1.000000
vt 0.406250 0.500000
vt 0.375000 1.000000
vt 0.375000 0.500000
vt 0.343750 1.000000
vt 0.343750 0.500000
vt 0.312500 1.000000
vt 0.312500 0.500000
vt 0.281250 1.000000
vt 0.281250 0.500000
vt 0.250000 1.000000
vt 0.250000 0.500000
vt 0.218750 1.000000
vt 0.218750 0.500000
vt 0.187500 1.000000
vt 0.187500 0.500000
vt 0.156250 1.000000
vt 0.156250 0.500000
vt 0.125000 1.000000
vt 0.125000 0.500000
vt 0.093750 1.000000
vt 0.093750 0.500000
vt 0.062500 1.000000
vt 0.062500 0.500000
vt 0.296822 0.485388
vt 0.250000 0.490000
vt 0.203178 0.485388
vt 0.158156 0.471731
vt 0.116663 0.449553
vt 0.080294 0.419706
vt 0.050447 0.383337
vt 0.028269 0.341844
vt 0.014612 0.296822
vt 0.010000 0.250000
vt 0.014612 0.203178
vt 0.028269 0.158156
vt 0.050447 0.116663
vt 0.080294 0.080294
vt 0.116663 0.050447
vt 0.158156 0.028269
vt 0.203178 0.014612
vt 0.250000 0.010000
vt 0.296822 0.014612
vt 0.341844 0.028269
vt 0.383337 0.050447
vt 0.419706 0.080294
vt 0.449553 0.116663
vt 0.471731 0.158156
vt 0.485388 0.203178
vt 0.490000 0.250000
vt 0.485388 0.296822
vt 0.471731 0.341844
vt 0.449553 0.383337
vt 0.419706 0.419706
vt 0.383337 0.449553
vt 0.341844 0.471731
vt 0.031250 1.000000
vt 0.031250 0.500000
vt 0.000000 1.000000
vt 0.000000 0.500000
vt 0.750000 0.490000
vt 0.796822 0.485388
vt 0.841844 0.471731
vt 0.883337 0.449553
vt 0.919706 0.419706
vt 0.949553 0.383337
vt 0.971731 0.341844
vt 0.985388 0.296822
vt 0.990000 0.250000
vt 0.985388 0.203178
vt 0.971731 0.158156
vt 0.949553 0.116663
vt 0.919706 0.080294
vt 0.883337 0.050447
vt 0.841844 0.028269
vt 0.796822 0.014612
vt 0.750000 0.010000
vt 0.703178 0.014612
vt 0.658156 0.028269
vt 0.616663 0.050447
vt 0.580294 0.080294
vt 0.550447 0.116663
vt 0.528269 0.158156
vt 0.514612 0.203178
vt 0.510000 0.250000
vt 0.514612 0.296822
vt 0.528269 0.341844
vt 0.550447 0.383337
vt 0.580294 0.419706
vt 0.616663 0.449553
vt 0.658156 0.471731
vt 0.703178 0.485388
s 0
usemtl yamato_wave_glow
f 55/85/42 56/86/42 58/87/42 57/88/42
f 57/88/43 58/87/43 60/89/43 59/90/43
f 59/90/44 60/89/44 62/91/44 61/92/44
f 61/92/45 62/91/45 64/93/45 63/94/45
f 63/94/46 64/93/46 66/95/46 65/96/46
f 65/96/47 66/95/47 68/97/47 67/98/47
f 67/98/48 68/97/48 70/99/48 69/100/48
f 69/100/49 70/99/49 72/101/49 71/102/49
f 71/102/50 72/101/50 74/103/50 73/104/50
f 73/104/51 74/103/51 76/105/51 75/106/51
f 75/106/52 76/105/52 78/107/52 77/108/52
f 77/108/53 78/107/53 80/109/53 79/110/53
f 79/110/54 80/109/54 82/111/54 81/112/54
f 81/112/55 82/111/55 84/113/55 83/114/55
f 83/114/56 84/113/56 86/115/56 85/116/56
f 85/116/57 86/115/57 88/117/57 87/118/57
f 87/118/58 88/117/58 90/119/58 89/120/58
f 89/120/59 90/119/59 92/121/59 91/122/59
f 91/122/60 92/121/60 94/123/60 93/124/60
f 93/124/61 94/123/61 96/125/61 95/126/61
f 95/126/62 96/125/62 98/127/62 97/128/62
f 97/128/63 98/127/63 100/129/63 99/130/63
f 99/130/64 100/129/64 102/131/64 101/132/64
f 101/132/65 102/131/65 104/133/65 103/134/65
f 103/134/66 104/133/66 106/135/66 105/136/66
f 105/136/67 106/135/67 108/137/67 107/138/67
f 107/138/68 108/137/68 110/139/68 109/140/68
f 109/140/69 110/139/69 112/141/69 111/142/69
f 111/142/70 112/141/70 114/143/70 113/144/70
f 113/144/71 114/143/71 116/145/71 115/146/71
f 58/147/72 56/148/72 118/149/72 116/150/72 114/151/72 112/152/72 110/153/72 108/154/72 106/155/72 104/156/72 102/157/72 100/158/72 98/159/72 96/160/72 94/161/72 92/162/72 90/163/72 88/164/72 86/165/72 84/166/72 82/167/72 80/168/72 78/169/72 76/170/72 74/171/72 72/172/72 70/173/72 68/174/72 66/175/72 64/176/72 62/177/72 60/178/72
f 115/146/73 116/145/73 118/179/73 117/180/73
f 117/180/74 118/179/74 56/181/74 55/182/74
f 55/183/75 57/184/75 59/185/75 61/186/75 63/187/75 65/188/75 67/189/75 69/190/75 71/191/75 73/192/75 75/193/75 77/194/75 79/195/75 81/196/75 83/197/75 85/198/75 87/199/75 89/200/75 91/201/75 93/202/75 95/203/75 97/204/75 99/205/75 101/206/75 103/207/75 105/208/75 107/209/75 109/210/75 111/211/75 113/212/75 115/213/75 117/214/75
o main_turret_0
v -0.580000 -2.980000 -0.830000
v -0.580000 -2.120000 -0.830000
v -0.580000 -2.980000 -1.210000
v -0.580000 -2.120000 -1.210000
v 0.580000 -2.980000 -0.830000
v 0.580000 -2.120000 -0.830000
v 0.580000 -2.980000 -1.210000
v 0.580000 -2.120000 -1.210000
vn -1.0000 -0.0000 -0.0000
vn -0.0000 -0.0000 -1.0000
vn 1.0000 -0.0000 -0.0000
vn -0.0000 -0.0000 1.0000
vn -0.0000 -1.0000 -0.0000
vn -0.0000 1.0000 -0.0000
vt 0.375000 0.000000
vt 0.625000 0.000000
vt 0.625000 0.250000
vt 0.375000 0.250000
vt 0.625000 0.500000
vt 0.375000 0.500000
vt 0.625000 0.750000
vt 0.375000 0.750000
vt 0.625000 1.000000
vt 0.375000 1.000000
vt 0.125000 0.500000
vt 0.125000 0.750000
vt 0.875000 0.500000
vt 0.875000 0.750000
s 0
usemtl yamato_armor
f 119/215/76 120/216/76 122/217/76 121/218/76
f 121/218/77 122/217/77 126/219/77 125/220/77
f 125/220/78 126/219/78 124/221/78 123/222/78
f 123/222/79 124/221/79 120/223/79 119/224/79
f 121/225/80 125/220/80 123/222/80 119/226/80
f 126/219/81 122/227/81 120/228/81 124/221/81
o main_barrel_0_-0.32
v -0.320000 -3.290000 -1.700000
v -0.320000 -3.290000 -0.500000
v -0.297039 -3.294567 -1.700000
v -0.297039 -3.294567 -0.500000
v -0.277574 -3.307574 -1.700000
v -0.277574 -3.307574 -0.500000
v -0.264567 -3.327039 -1.700000
v -0.264567 -3.327039 -0.500000
v -0.260000 -3.350000 -1.700000
v -0.260000 -3.350000 -0.500000
v -0.264567 -3.372961 -1.700000
v -0.264567 -3.372961 -0.500000
v -0.277574 -3.392426 -1.700000
v -0.277574 -3.392426 -0.500000
v -0.297039 -3.405433 -1.700000
v -0.297039 -3.405433 -0.500000
v -0.320000 -3.410000 -1.700000
v -0.320000 -3.410000 -0.500000
v -0.342961 -3.405433 -1.700000
v -0.342961 -3.405433 -0.500000
v -0.362426 -3.392426 -1.700000
v -0.362426 -3.392426 -0.500000
v -0.375433 -3.372961 -1.700000
v -0.375433 -3.372961 -0.500000
v -0.380000 -3.350000 -1.700000
v -0.380000 -3.350000 -0.500000
v -0.375433 -3.327039 -1.700000
v -0.375433 -3.327039 -0.500000
v -0.362426 -3.307574 -1.700000
v -0.362426 -3.307574 -0.500000
v -0.342961 -3.294567 -1.700000
v -0.342961 -3.294567 -0.500000
vn 0.1951 0.9808 -0.0000
vn 0.5556 0.8315 -0.0000
vn 0.8315 0.5556 -0.0000
vn 0.9808 0.1951 -0.0000
vn 0.9808 -0.1951 -0.0000
vn 0.8315 -0.5556 -0.0000
vn 0.5556 -0.8315 -0.0000
vn 0.1951 -0.9808 -0.0000
vn -0.1951 -0.9808 -0.0000
vn -0.5556 -0.8315 -0.0000
vn -0.8315 -0.5556 -0.0000
vn -0.9808 -0.1951 -0.0000
vn -0.9808 0.1951 -0.0000
vn -0.8315 0.5556 -0.0000
vn -0.0000 -0.0000 1.0000
vn -0.5556 0.8315 -0.0000
vn -0.1951 0.9808 -0.0000
vn -0.0000 -0.0000 -1.0000
vt 1.000000 0.500000
vt 1.000000 1.000000
vt 0.937500 1.000000
vt 0.937500 0.500000
vt 0.875000 1.000000
vt 0.875000 0.500000
vt 0.812500 1.000000
vt 0.812500 0.500000
vt 0.750000 1.000000
vt 0.750000 0.500000
vt 0.687500 1.000000
vt 0.687500 0.500000
vt 0.625000 1.000000
vt 0.625000 0.500000
vt 0.562500 1.000000
vt 0.562500 0.500000
vt 0.500000 1.000000
vt 0.500000 0.500000
vt 0.437500 1.000000
vt 0.437500 0.500000
vt 0.375000 1.000000
vt 0.375000 0.500000
vt 0.312500 1.000000
vt 0.312500 0.500000
vt 0.250000 1.000000
vt 0.250000 0.500000
vt 0.187500 1.000000
vt 0.187500 0.500000
vt 0.125000 1.000000
vt 0.125000 0.500000
vt 0.341844 0.471731
vt 0.250000 0.490000
vt 0.158156 0.471731
vt 0.080294 0.419706
vt 0.028269 0.341844
vt 0.010000 0.250000
vt 0.028269 0.158156
vt 0.080294 0.080294
vt 0.158156 0.028269
vt 0.250000 0.010000
vt 0.341844 0.028269
vt 0.419706 0.080294
vt 0.471731 0.158156
vt 0.490000 0.250000
vt 0.471731 0.341844
vt 0.419706 0.419706
vt 0.062500 1.000000
vt 0.062500 0.500000
vt 0.000000 1.000000
vt 0.000000 0.500000
vt 0.750000 0.490000
vt 0.841844 0.471731
vt 0.919706 0.419706
vt 0.971731 0.341844
vt 0.990000 0.250000
vt 0.971731 0.158156
vt 0.919706 0.080294
vt 0.841844 0.028269
vt 0.750000 0.010000
vt 0.658156 0.028269
vt 0.580294 0.080294
vt 0.528269 0.158156
vt 0.510000 0.250000
vt 0.528269 0.341844
vt 0.580294 0.419706
vt 0.658156 0.471731
s 0
usemtl yamato_dark
f 127/229/82 128/230/82 130/231/82 129/232/82
f 129/232/83 130/231/83 132/233/83 131/234/83
f 131/234/84 132/233/84 134/235/84 133/236/84
f 133/236/85 134/235/85 136/237/85 135/238/85
f 135/238/86 136/237/86 138/239/86 137/240/86
f 137/240/87 138/239/87 140/241/87 139/242/87
f 139/242/88 140/241/88 142/243/88 141/244/88
f 141/244/89 142/243/89 144/245/89 143/246/89
f 143/246/90 144/245/90 146/247/90 145/248/90
f 145/248/91 146/247/91 148/249/91 147/250/91
f 147/250/92 148/249/92 150/251/92 149/252/92
f 149/252/93 150/251/93 152/253/93 151/254/93
f 151/254/94 152/253/94 154/255/94 153/256/94
f 153/256/95 154/255/95 156/257/95 155/258/95
f 130/259/96 128/260/96 158/261/96 156/262/96 154/263/96 152/264/96 150/265/96 148/266/96 146/267/96 144/268/96 142/269/96 140/270/96 138/271/96 136/272/96 134/273/96 132/274/96
f 155/258/97 156/257/97 158/275/97 157/276/97
f 157/276/98 158/275/98 128/277/98 127/278/98
f 127/279/99 129/280/99 131/281/99 133/282/99 135/283/99 137/284/99 139/285/99 141/286/99 143/287/99 145/288/99 147/289/99 149/290/99 151/291/99 153/292/99 155/293/99 157/294/99
o main_barrel_0_0.0
v 0.000000 -3.290000 -1.700000
v 0.000000 -3.290000 -0.500000
v 0.022961 -3.294567 -1.700000
v 0.022961 -3.294567 -0.500000
v 0.042426 -3.307574 -1.700000
v 0.042426 -3.307574 -0.500000
v 0.055433 -3.327039 -1.700000
v 0.055433 -3.327039 -0.500000
v 0.060000 -3.350000 -1.700000
v 0.060000 -3.350000 -0.500000
v 0.055433 -3.372961 -1.700000
v 0.055433 -3.372961 -0.500000
v 0.042426 -3.392426 -1.700000
v 0.042426 -3.392426 -0.500000
v 0.022961 -3.405433 -1.700000
v 0.022961 -3.405433 -0.500000
v 0.000000 -3.410000 -1.700000
v 0.000000 -3.410000 -0.500000
v -0.022961 -3.405433 -1.700000
v -0.022961 -3.405433 -0.500000
v -0.042426 -3.392426 -1.700000
v -0.042426 -3.392426 -0.500000
v -0.055433 -3.372961 -1.700000
v -0.055433 -3.372961 -0.500000
v -0.060000 -3.350000 -1.700000
v -0.060000 -3.350000 -0.500000
v -0.055433 -3.327039 -1.700000
v -0.055433 -3.327039 -0.500000
v -0.042426 -3.307574 -1.700000
v -0.042426 -3.307574 -0.500000
v -0.022961 -3.294567 -1.700000
v -0.022961 -3.294567 -0.500000
vn 0.1951 0.9808 -0.0000
vn 0.5556 0.8315 -0.0000
vn 0.8315 0.5556 -0.0000
vn 0.9808 0.1951 -0.0000
vn 0.9808 -0.1951 -0.0000
vn 0.8315 -0.5556 -0.0000
vn 0.5556 -0.8315 -0.0000
vn 0.1951 -0.9808 -0.0000
vn -0.1951 -0.9808 -0.0000
vn -0.5556 -0.8315 -0.0000
vn -0.8315 -0.5556 -0.0000
vn -0.9808 -0.1951 -0.0000
vn -0.9808 0.1951 -0.0000
vn -0.8315 0.5556 -0.0000
vn -0.0000 -0.0000 1.0000
vn -0.5556 0.8315 -0.0000
vn -0.1951 0.9808 -0.0000
vn -0.0000 -0.0000 -1.0000
vt 1.000000 0.500000
vt 1.000000 1.000000
vt 0.937500 1.000000
vt 0.937500 0.500000
vt 0.875000 1.000000
vt 0.875000 0.500000
vt 0.812500 1.000000
vt 0.812500 0.500000
vt 0.750000 1.000000
vt 0.750000 0.500000
vt 0.687500 1.000000
vt 0.687500 0.500000
vt 0.625000 1.000000
vt 0.625000 0.500000
vt 0.562500 1.000000
vt 0.562500 0.500000
vt 0.500000 1.000000
vt 0.500000 0.500000
vt 0.437500 1.000000
vt 0.437500 0.500000
vt 0.375000 1.000000
vt 0.375000 0.500000
vt 0.312500 1.000000
vt 0.312500 0.500000
vt 0.250000 1.000000
vt 0.250000 0.500000
vt 0.187500 1.000000
vt 0.187500 0.500000
vt 0.125000 1.000000
vt 0.125000 0.500000
vt 0.341844 0.471731
vt 0.250000 0.490000
vt 0.158156 0.471731
vt 0.080294 0.419706
vt 0.028269 0.341844
vt 0.010000 0.250000
vt 0.028269 0.158156
vt 0.080294 0.080294
vt 0.158156 0.028269
vt 0.250000 0.010000
vt 0.341844 0.028269
vt 0.419706 0.080294
vt 0.471731 0.158156
vt 0.490000 0.250000
vt 0.471731 0.341844
vt 0.419706 0.419706
vt 0.062500 1.000000
vt 0.062500 0.500000
vt 0.000000 1.000000
vt 0.000000 0.500000
vt 0.750000 0.490000
vt 0.841844 0.471731
vt 0.919706 0.419706
vt 0.971731 0.341844
vt 0.990000 0.250000
vt 0.971731 0.158156
vt 0.919706 0.080294
vt 0.841844 0.028269
vt 0.750000 0.010000
vt 0.658156 0.028269
vt 0.580294 0.080294
vt 0.528269 0.158156
vt 0.510000 0.250000
vt 0.528269 0.341844
vt 0.580294 0.419706
vt 0.658156 0.471731
s 0
usemtl yamato_dark
f 159/295/100 160/296/100 162/297/100 161/298/100
f 161/298/101 162/297/101 164/299/101 163/300/101
f 163/300/102 164/299/102 166/301/102 165/302/102
f 165/302/103 166/301/103 168/303/103 167/304/103
f 167/304/104 168/303/104 170/305/104 169/306/104
f 169/306/105 170/305/105 172/307/105 171/308/105
f 171/308/106 172/307/106 174/309/106 173/310/106
f 173/310/107 174/309/107 176/311/107 175/312/107
f 175/312/108 176/311/108 178/313/108 177/314/108
f 177/314/109 178/313/109 180/315/109 179/316/109
f 179/316/110 180/315/110 182/317/110 181/318/110
f 181/318/111 182/317/111 184/319/111 183/320/111
f 183/320/112 184/319/112 186/321/112 185/322/112
f 185/322/113 186/321/113 188/323/113 187/324/113
f 162/325/114 160/326/114 190/327/114 188/328/114 186/329/114 184/330/114 182/331/114 180/332/114 178/333/114 176/334/114 174/335/114 172/336/114 170/337/114 168/338/114 166/339/114 164/340/114
f 187/324/115 188/323/115 190/341/115 189/342/115
f 189/342/116 190/341/116 160/343/116 159/344/116
f 159/345/117 161/346/117 163/347/117 165/348/117 167/349/117 169/350/117 171/351/117 173/352/117 175/353/117 177/354/117 179/355/117 181/356/117 183/357/117 185/358/117 187/359/117 189/360/117
o main_barrel_0_0.32
v 0.320000 -3.290000 -1.700000
v 0.320000 -3.290000 -0.500000
v 0.342961 -3.294567 -1.700000
v 0.342961 -3.294567 -0.500000
v 0.362426 -3.307574 -1.700000
v 0.362426 -3.307574 -0.500000
v 0.375433 -3.327039 -1.700000
v 0.375433 -3.327039 -0.500000
v 0.380000 -3.350000 -1.700000
v 0.380000 -3.350000 -0.500000
v 0.375433 -3.372961 -1.700000
v 0.375433 -3.372961 -0.500000
v 0.362426 -3.392426 -1.700000
v 0.362426 -3.392426 -0.500000
v 0.342961 -3.405433 -1.700000
v 0.342961 -3.405433 -0.500000
v 0.320000 -3.410000 -1.700000
v 0.320000 -3.410000 -0.500000
v 0.297039 -3.405433 -1.700000
v 0.297039 -3.405433 -0.500000
v 0.277574 -3.392426 -1.700000
v 0.277574 -3.392426 -0.500000
v 0.264567 -3.372961 -1.700000
v 0.264567 -3.372961 -0.500000
v 0.260000 -3.350000 -1.700000
v 0.260000 -3.350000 -0.500000
v 0.264567 -3.327039 -1.700000
v 0.264567 -3.327039 -0.500000
v 0.277574 -3.307574 -1.700000
v 0.277574 -3.307574 -0.500000
v 0.297039 -3.294567 -1.700000
v 0.297039 -3.294567 -0.500000
vn 0.1951 0.9808 -0.0000
vn 0.5556 0.8315 -0.0000
vn 0.8315 0.5556 -0.0000
vn 0.9808 0.1951 -0.0000
vn 0.9808 -0.1951 -0.0000
vn 0.8315 -0.5556 -0.0000
vn 0.5556 -0.8315 -0.0000
vn 0.1951 -0.9808 -0.0000
vn -0.1951 -0.9808 -0.0000
vn -0.5556 -0.8315 -0.0000
vn -0.8315 -0.5556 -0.0000
vn -0.9808 -0.1951 -0.0000
vn -0.9808 0.1951 -0.0000
vn -0.8315 0.5556 -0.0000
vn -0.0000 -0.0000 1.0000
vn -0.5556 0.8315 -0.0000
vn -0.1951 0.9808 -0.0000
vn -0.0000 -0.0000 -1.0000
vt 1.000000 0.500000
vt 1.000000 1.000000
vt 0.937500 1.000000
vt 0.937500 0.500000
vt 0.875000 1.000000
vt 0.875000 0.500000
vt 0.812500 1.000000
vt 0.812500 0.500000
vt 0.750000 1.000000
vt 0.750000 0.500000
vt 0.687500 1.000000
vt 0.687500 0.500000
vt 0.625000 1.000000
vt 0.625000 0.500000
vt 0.562500 1.000000
vt 0.562500 0.500000
vt 0.500000 1.000000
vt 0.500000 0.500000
vt 0.437500 1.000000
vt 0.437500 0.500000
vt 0.375000 1.000000
vt 0.375000 0.500000
vt 0.312500 1.000000
vt 0.312500 0.500000
vt 0.250000 1.000000
vt 0.250000 0.500000
vt 0.187500 1.000000
vt 0.187500 0.500000
vt 0.125000 1.000000
vt 0.125000 0.500000
vt 0.341844 0.471731
vt 0.250000 0.490000
vt 0.158156 0.471731
vt 0.080294 0.419706
vt 0.028269 0.341844
vt 0.010000 0.250000
vt 0.028269 0.158156
vt 0.080294 0.080294
vt 0.158156 0.028269
vt 0.250000 0.010000
vt 0.341844 0.028269
vt 0.419706 0.080294
vt 0.471731 0.158156
vt 0.490000 0.250000
vt 0.471731 0.341844
vt 0.419706 0.419706
vt 0.062500 1.000000
vt 0.062500 0.500000
vt 0.000000 1.000000
vt 0.000000 0.500000
vt 0.750000 0.490000
vt 0.841844 0.471731
vt 0.919706 0.419706
vt 0.971731 0.341844
vt 0.990000 0.250000
vt 0.971731 0.158156
vt 0.919706 0.080294
vt 0.841844 0.028269
vt 0.750000 0.010000
vt 0.658156 0.028269
vt 0.580294 0.080294
vt 0.528269 0.158156
vt 0.510000 0.250000
vt 0.528269 0.341844
vt 0.580294 0.419706
vt 0.658156 0.471731
s 0
usemtl yamato_dark
f 191/361/118 192/362/118 194/363/118 193/364/118
f 193/364/119 194/363/119 196/365/119 195/366/119
f 195/366/120 196/365/120 198/367/120 197/368/120
f 197/368/121 198/367/121 200/369/121 199/370/121
f 199/370/122 200/369/122 202/371/122 201/372/122
f 201/372/123 202/371/123 204/373/123 203/374/123
f 203/374/124 204/373/124 206/375/124 205/376/124
f 205/376/125 206/375/125 208/377/125 207/378/125
f 207/378/126 208/377/126 210/379/126 209/380/126
f 209/380/127 210/379/127 212/381/127 211/382/127
f 211/382/128 212/381/128 214/383/128 213/384/128
f 213/384/129 214/383/129 216/385/129 215/386/129
f 215/386/130 216/385/130 218/387/130 217/388/130
f 217/388/131 218/387/131 220/389/131 219/390/131
f 194/391/132 192/392/132 222/393/132 220/394/132 218/395/132 216/396/132 214/397/132 212/398/132 210/399/132 208/400/132 206/401/132 204/402/132 202/403/132 200/404/132 198/405/132 196/406/132
f 219/390/133 220/389/133 222/407/133 221/408/133
f 221/408/134 222/407/134 192/409/134 191/410/134
f 191/411/135 193/412/135 195/413/135 197/414/135 199/415/135 201/416/135 203/417/135 205/418/135 207/419/135 209/420/135 211/421/135 213/422/135 215/423/135 217/424/135 219/425/135 221/426/135
o main_turret_1
v -0.580000 -1.480000 -0.830000
v -0.580000 -0.620000 -0.830000
v -0.580000 -1.480000 -1.210000
v -0.580000 -0.620000 -1.210000
v 0.580000 -1.480000 -0.830000
v 0.580000 -0.620000 -0.830000
v 0.580000 -1.480000 -1.210000
v 0.580000 -0.620000 -1.210000
vn -1.0000 -0.0000 -0.0000
vn -0.0000 -0.0000 -1.0000
vn 1.0000 -0.0000 -0.0000
vn -0.0000 -0.0000 1.0000
vn -0.0000 -1.0000 -0.0000
vn -0.0000 1.0000 -0.0000
vt 0.375000 0.000000
vt 0.625000 0.000000
vt 0.625000 0.250000
vt 0.375000 0.250000
vt 0.625000 0.500000
vt 0.375000 0.500000
vt 0.625000 0.750000
vt 0.375000 0.750000
vt 0.625000 1.000000
vt 0.375000 1.000000
vt 0.125000 0.500000
vt 0.125000 0.750000
vt 0.875000 0.500000
vt 0.875000 0.750000
s 0
usemtl yamato_armor
f 223/427/136 224/428/136 226/429/136 225/430/136
f 225/430/137 226/429/137 230/431/137 229/432/137
f 229/432/138 230/431/138 228/433/138 227/434/138
f 227/434/139 228/433/139 224/435/139 223/436/139
f 225/437/140 229/432/140 227/434/140 223/438/140
f 230/431/141 226/439/141 224/440/141 228/433/141
o main_barrel_1_-0.32
v -0.320000 -1.790000 -1.700000
v -0.320000 -1.790000 -0.500000
v -0.297039 -1.794567 -1.700000
v -0.297039 -1.794567 -0.500000
v -0.277574 -1.807574 -1.700000
v -0.277574 -1.807574 -0.500000
v -0.264567 -1.827039 -1.700000
v -0.264567 -1.827039 -0.500000
v -0.260000 -1.850000 -1.700000
v -0.260000 -1.850000 -0.500000
v -0.264567 -1.872961 -1.700000
v -0.264567 -1.872961 -0.500000
v -0.277574 -1.892426 -1.700000
v -0.277574 -1.892426 -0.500000
v -0.297039 -1.905433 -1.700000
v -0.297039 -1.905433 -0.500000
v -0.320000 -1.910000 -1.700000
v -0.320000 -1.910000 -0.500000
v -0.342961 -1.905433 -1.700000
v -0.342961 -1.905433 -0.500000
v -0.362426 -1.892426 -1.700000
v -0.362426 -1.892426 -0.500000
v -0.375433 -1.872961 -1.700000
v -0.375433 -1.872961 -0.500000
v -0.380000 -1.850000 -1.700000
v -0.380000 -1.850000 -0.500000
v -0.375433 -1.827039 -1.700000
v -0.375433 -1.827039 -0.500000
v -0.362426 -1.807574 -1.700000
v -0.362426 -1.807574 -0.500000
v -0.342961 -1.794567 -1.700000
v -0.342961 -1.794567 -0.500000
vn 0.1951 0.9808 -0.0000
vn 0.5556 0.8315 -0.0000
vn 0.8315 0.5556 -0.0000
vn 0.9808 0.1951 -0.0000
vn 0.9808 -0.1951 -0.0000
vn 0.8315 -0.5556 -0.0000
vn 0.5556 -0.8315 -0.0000
vn 0.1951 -0.9808 -0.0000
vn -0.1951 -0.9808 -0.0000
vn -0.5556 -0.8315 -0.0000
vn -0.8315 -0.5556 -0.0000
vn -0.9808 -0.1951 -0.0000
vn -0.9808 0.1951 -0.0000
vn -0.8315 0.5556 -0.0000
vn -0.0000 -0.0000 1.0000
vn -0.5556 0.8315 -0.0000
vn -0.1951 0.9808 -0.0000
vn -0.0000 -0.0000 -1.0000
vt 1.000000 0.500000
vt 1.000000 1.000000
vt 0.937500 1.000000
vt 0.937500 0.500000
vt 0.875000 1.000000
vt 0.875000 0.500000
vt 0.812500 1.000000
vt 0.812500 0.500000
vt 0.750000 1.000000
vt 0.750000 0.500000
vt 0.687500 1.000000
vt 0.687500 0.500000
vt 0.625000 1.000000
vt 0.625000 0.500000
vt 0.562500 1.000000
vt 0.562500 0.500000
vt 0.500000 1.000000
vt 0.500000 0.500000
vt 0.437500 1.000000
vt 0.437500 0.500000
vt 0.375000 1.000000
vt 0.375000 0.500000
vt 0.312500 1.000000
vt 0.312500 0.500000
vt 0.250000 1.000000
vt 0.250000 0.500000
vt 0.187500 1.000000
vt 0.187500 0.500000
vt 0.125000 1.000000
vt 0.125000 0.500000
vt 0.341844 0.471731
vt 0.250000 0.490000
vt 0.158156 0.471731
vt 0.080294 0.419706
vt 0.028269 0.341844
vt 0.010000 0.250000
vt 0.028269 0.158156
vt 0.080294 0.080294
vt 0.158156 0.028269
vt 0.250000 0.010000
vt 0.341844 0.028269
vt 0.419706 0.080294
vt 0.471731 0.158156
vt 0.490000 0.250000
vt 0.471731 0.341844
vt 0.419706 0.419706
vt 0.062500 1.000000
vt 0.062500 0.500000
vt 0.000000 1.000000
vt 0.000000 0.500000
vt 0.750000 0.490000
vt 0.841844 0.471731
vt 0.919706 0.419706
vt 0.971731 0.341844
vt 0.990000 0.250000
vt 0.971731 0.158156
vt 0.919706 0.080294
vt 0.841844 0.028269
vt 0.750000 0.010000
vt 0.658156 0.028269
vt 0.580294 0.080294
vt 0.528269 0.158156
vt 0.510000 0.250000
vt 0.528269 0.341844
vt 0.580294 0.419706
vt 0.658156 0.471731
s 0
usemtl yamato_dark
f 231/441/142 232/442/142 234/443/142 233/444/142
f 233/444/143 234/443/143 236/445/143 235/446/143
f 235/446/144 236/445/144 238/447/144 237/448/144
f 237/448/145 238/447/145 240/449/145 239/450/145
f 239/450/146 240/449/146 242/451/146 241/452/146
f 241/452/147 242/451/147 244/453/147 243/454/147
f 243/454/148 244/453/148 246/455/148 245/456/148
f 245/456/149 246/455/149 248/457/149 247/458/149
f 247/458/150 248/457/150 250/459/150 249/460/150
f 249/460/151 250/459/151 252/461/151 251/462/151
f 251/462/152 252/461/152 254/463/152 253/464/152
f 253/464/153 254/463/153 256/465/153 255/466/153
f 255/466/154 256/465/154 258/467/154 257/468/154
f 257/468/155 258/467/155 260/469/155 259/470/155
f 234/471/156 232/472/156 262/473/156 260/474/156 258/475/156 256/476/156 254/477/156 252/478/156 250/479/156 248/480/156 246/481/156 244/482/156 242/483/156 240/484/156 238/485/156 236/486/156
f 259/470/157 260/469/157 262/487/157 261/488/157
f 261/488/158 262/487/158 232/489/158 231/490/158
f 231/491/159 233/492/159 235/493/159 237/494/159 239/495/159 241/496/159 243/497/159 245/498/159 247/499/159 249/500/159 251/501/159 253/502/159 255/503/159 257/504/159 259/505/159 261/506/159
o main_barrel_1_0.0
v 0.000000 -1.790000 -1.700000
v 0.000000 -1.790000 -0.500000
v 0.022961 -1.794567 -1.700000
v 0.022961 -1.794567 -0.500000
v 0.042426 -1.807574 -1.700000
v 0.042426 -1.807574 -0.500000
v 0.055433 -1.827039 -1.700000
v 0.055433 -1.827039 -0.500000
v 0.060000 -1.850000 -1.700000
v 0.060000 -1.850000 -0.500000
v 0.055433 -1.872961 -1.700000
v 0.055433 -1.872961 -0.500000
v 0.042426 -1.892426 -1.700000
v 0.042426 -1.892426 -0.500000
v 0.022961 -1.905433 -1.700000
v 0.022961 -1.905433 -0.500000
v 0.000000 -1.910000 -1.700000
v 0.000000 -1.910000 -0.500000
v -0.022961 -1.905433 -1.700000
v -0.022961 -1.905433 -0.500000
v -0.042426 -1.892426 -1.700000
v -0.042426 -1.892426 -0.500000
v -0.055433 -1.872961 -1.700000
v -0.055433 -1.872961 -0.500000
v -0.060000 -1.850000 -1.700000
v -0.060000 -1.850000 -0.500000
v -0.055433 -1.827039 -1.700000
v -0.055433 -1.827039 -0.500000
v -0.042426 -1.807574 -1.700000
v -0.042426 -1.807574 -0.500000
v -0.022961 -1.794567 -1.700000
v -0.022961 -1.794567 -0.500000
vn 0.1951 0.9808 -0.0000
vn 0.5556 0.8315 -0.0000
vn 0.8315 0.5556 -0.0000
vn 0.9808 0.1951 -0.0000
vn 0.9808 -0.1951 -0.0000
vn 0.8315 -0.5556 -0.0000
vn 0.5556 -0.8315 -0.0000
vn 0.1951 -0.9808 -0.0000
vn -0.1951 -0.9808 -0.0000
vn -0.5556 -0.8315 -0.0000
vn -0.8315 -0.5556 -0.0000
vn -0.9808 -0.1951 -0.0000
vn -0.9808 0.1951 -0.0000
vn -0.8315 0.5556 -0.0000
vn -0.0000 -0.0000 1.0000
vn -0.5556 0.8315 -0.0000
vn -0.1951 0.9808 -0.0000
vn -0.0000 -0.0000 -1.0000
vt 1.000000 0.500000
vt 1.000000 1.000000
vt 0.937500 1.000000
vt 0.937500 0.500000
vt 0.875000 1.000000
vt 0.875000 0.500000
vt 0.812500 1.000000
vt 0.812500 0.500000
vt 0.750000 1.000000
vt 0.750000 0.500000
vt 0.687500 1.000000
vt 0.687500 0.500000
vt 0.625000 1.000000
vt 0.625000 0.500000
vt 0.562500 1.000000
vt 0.562500 0.500000
vt 0.500000 1.000000
vt 0.500000 0.500000
vt 0.437500 1.000000
vt 0.437500 0.500000
vt 0.375000 1.000000
vt 0.375000 0.500000
vt 0.312500 1.000000
vt 0.312500 0.500000
vt 0.250000 1.000000
vt 0.250000 0.500000
vt 0.187500 1.000000
vt 0.187500 0.500000
vt 0.125000 1.000000
vt 0.125000 0.500000
vt 0.341844 0.471731
vt 0.250000 0.490000
vt 0.158156 0.471731
vt 0.080294 0.419706
vt 0.028269 0.341844
vt 0.010000 0.250000
vt 0.028269 0.158156
vt 0.080294 0.080294
vt 0.158156 0.028269
vt 0.250000 0.010000
vt 0.341844 0.028269
vt 0.419706 0.080294
vt 0.471731 0.158156
vt 0.490000 0.250000
vt 0.471731 0.341844
vt 0.419706 0.419706
vt 0.062500 1.000000
vt 0.062500 0.500000
vt 0.000000 1.000000
vt 0.000000 0.500000
vt 0.750000 0.490000
vt 0.841844 0.471731
vt 0.919706 0.419706
vt 0.971731 0.341844
vt 0.990000 0.250000
vt 0.971731 0.158156
vt 0.919706 0.080294
vt 0.841844 0.028269
vt 0.750000 0.010000
vt 0.658156 0.028269
vt 0.580294 0.080294
vt 0.528269 0.158156
vt 0.510000 0.250000
vt 0.528269 0.341844
vt 0.580294 0.419706
vt 0.658156 0.471731
s 0
usemtl yamato_dark
f 263/507/160 264/508/160 266/509/160 265/510/160
f 265/510/161 266/509/161 268/511/161 267/512/161
f 267/512/162 268/511/162 270/513/162 269/514/162
f 269/514/163 270/513/163 272/515/163 271/516/163
f 271/516/164 272/515/164 274/517/164 273/518/164
f 273/518/165 274/517/165 276/519/165 275/520/165
f 275/520/166 276/519/166 278/521/166 277/522/166
f 277/522/167 278/521/167 280/523/167 279/524/167
f 279/524/168 280/523/168 282/525/168 281/526/168
f 281/526/169 282/525/169 284/527/169 283/528/169
f 283/528/170 284/527/170 286/529/170 285/530/170
f 285/530/171 286/529/171 288/531/171 287/532/171
f 287/532/172 288/531/172 290/533/172 289/534/172
f 289/534/173 290/533/173 292/535/173 291/536/173
f 266/537/174 264/538/174 294/539/174 292/540/174 290/541/174 288/542/174 286/543/174 284/544/174 282/545/174 280/546/174 278/547/174 276/548/174 274/549/174 272/550/174 270/551/174 268/552/174
f 291/536/175 292/535/175 294/553/175 293/554/175
f 293/554/176 294/553/176 264/555/176 263/556/176
f 263/557/177 265/558/177 267/559/177 269/560/177 271/561/177 273/562/177 275/563/177 277/564/177 279/565/177 281/566/177 283/567/177 285/568/177 287/569/177 289/570/177 291/571/177 293/572/177
o main_barrel_1_0.32
v 0.320000 -1.790000 -1.700000
v 0.320000 -1.790000 -0.500000
v 0.342961 -1.794567 -1.700000
v 0.342961 -1.794567 -0.500000
v 0.362426 -1.807574 -1.700000
v 0.362426 -1.807574 -0.500000
v 0.375433 -1.827039 -1.700000
v 0.375433 -1.827039 -0.500000
v 0.380000 -1.850000 -1.700000
v 0.380000 -1.850000 -0.500000
v 0.375433 -1.872961 -1.700000
v 0.375433 -1.872961 -0.500000
v 0.362426 -1.892426 -1.700000
v 0.362426 -1.892426 -0.500000
v 0.342961 -1.905433 -1.700000
v 0.342961 -1.905433 -0.500000
v 0.320000 -1.910000 -1.700000
v 0.320000 -1.910000 -0.500000
v 0.297039 -1.905433 -1.700000
v 0.297039 -1.905433 -0.500000
v 0.277574 -1.892426 -1.700000
v 0.277574 -1.892426 -0.500000
v 0.264567 -1.872961 -1.700000
v 0.264567 -1.872961 -0.500000
v 0.260000 -1.850000 -1.700000
v 0.260000 -1.850000 -0.500000
v 0.264567 -1.827039 -1.700000
v 0.264567 -1.827039 -0.500000
v 0.277574 -1.807574 -1.700000
v 0.277574 -1.807574 -0.500000
v 0.297039 -1.794567 -1.700000
v 0.297039 -1.794567 -0.500000
vn 0.1951 0.9808 -0.0000
vn 0.5556 0.8315 -0.0000
vn 0.8315 0.5556 -0.0000
vn 0.9808 0.1951 -0.0000
vn 0.9808 -0.1951 -0.0000
vn 0.8315 -0.5556 -0.0000
vn 0.5556 -0.8315 -0.0000
vn 0.1951 -0.9808 -0.0000
vn -0.1951 -0.9808 -0.0000
vn -0.5556 -0.8315 -0.0000
vn -0.8315 -0.5556 -0.0000
vn -0.9808 -0.1951 -0.0000
vn -0.9808 0.1951 -0.0000
vn -0.8315 0.5556 -0.0000
vn -0.0000 -0.0000 1.0000
vn -0.5556 0.8315 -0.0000
vn -0.1951 0.9808 -0.0000
vn -0.0000 -0.0000 -1.0000
vt 1.000000 0.500000
vt 1.000000 1.000000
vt 0.937500 1.000000
vt 0.937500 0.500000
vt 0.875000 1.000000
vt 0.875000 0.500000
vt 0.812500 1.000000
vt 0.812500 0.500000
vt 0.750000 1.000000
vt 0.750000 0.500000
vt 0.687500 1.000000
vt 0.687500 0.500000
vt 0.625000 1.000000
vt 0.625000 0.500000
vt 0.562500 1.000000
vt 0.562500 0.500000
vt 0.500000 1.000000
vt 0.500000 0.500000
vt 0.437500 1.000000
vt 0.437500 0.500000
vt 0.375000 1.000000
vt 0.375000 0.500000
vt 0.312500 1.000000
vt 0.312500 0.500000
vt 0.250000 1.000000
vt 0.250000 0.500000
vt 0.187500 1.000000
vt 0.187500 0.500000
vt 0.125000 1.000000
vt 0.125000 0.500000
vt 0.341844 0.471731
vt 0.250000 0.490000
vt 0.158156 0.471731
vt 0.080294 0.419706
vt 0.028269 0.341844
vt 0.010000 0.250000
vt 0.028269 0.158156
vt 0.080294 0.080294
vt 0.158156 0.028269
vt 0.250000 0.010000
vt 0.341844 0.028269
vt 0.419706 0.080294
vt 0.471731 0.158156
vt 0.490000 0.250000
vt 0.471731 0.341844
vt 0.419706 0.419706
vt 0.062500 1.000000
vt 0.062500 0.500000
vt 0.000000 1.000000
vt 0.000000 0.500000
vt 0.750000 0.490000
vt 0.841844 0.471731
vt 0.919706 0.419706
vt 0.971731 0.341844
vt 0.990000 0.250000
vt 0.971731 0.158156
vt 0.919706 0.080294
vt 0.841844 0.028269
vt 0.750000 0.010000
vt 0.658156 0.028269
vt 0.580294 0.080294
vt 0.528269 0.158156
vt 0.510000 0.250000
vt 0.528269 0.341844
vt 0.580294 0.419706
vt 0.658156 0.471731
s 0
usemtl yamato_dark
f 295/573/178 296/574/178 298/575/178 297/576/178
f 297/576/179 298/575/179 300/577/179 299/578/179
f 299/578/180 300/577/180 302/579/180 301/580/180
f 301/580/181 302/579/181 304/581/181 303/582/181
f 303/582/182 304/581/182 306/583/182 305/584/182
f 305/584/183 306/583/183 308/585/183 307/586/183
f 307/586/184 308/585/184 310/587/184 309/588/184
f 309/588/185 310/587/185 312/589/185 311/590/185
f 311/590/186 312/589/186 314/591/186 313/592/186
f 313/592/187 314/591/187 316/593/187 315/594/187
f 315/594/188 316/593/188 318/595/188 317/596/188
f 317/596/189 318/595/189 320/597/189 319/598/189
f 319/598/190 320/597/190 322/599/190 321/600/190
f 321/600/191 322/599/191 324/601/191 323/602/191
f 298/603/192 296/604/192 326/605/192 324/606/192 322/607/192 320/608/192 318/609/192 316/610/192 314/611/192 312/612/192 310/613/192 308/614/192 306/615/192 304/616/192 302/617/192 300/618/192
f 323/602/193 324/601/193 326/619/193 325/620/193
f 325/620/194 326/619/194 296/621/194 295/622/194
f 295/623/195 297/624/195 299/625/195 301/626/195 303/627/195 305/628/195 307/629/195 309/630/195 311/631/195 313/632/195 315/633/195 317/634/195 319/635/195 321/636/195 323/637/195 325/638/195
o main_turret_2
v -0.580000 1.020000 -0.830000
v -0.580000 1.880000 -0.830000
v -0.580000 1.020000 -1.210000
v -0.580000 1.880000 -1.210000
v 0.580000 1.020000 -0.830000
v 0.580000 1.880000 -0.830000
v 0.580000 1.020000 -1.210000
v 0.580000 1.880000 -1.210000
vn -1.0000 -0.0000 -0.0000
vn -0.0000 -0.0000 -1.0000
vn 1.0000 -0.0000 -0.0000
vn -0.0000 -0.0000 1.0000
vn -0.0000 -1.0000 -0.0000
vn -0.0000 1.0000 -0.0000
vt 0.375000 0.000000
vt 0.625000 0.000000
vt 0.625000 0.250000
vt 0.375000 0.250000
vt 0.625000 0.500000
vt 0.375000 0.500000
vt 0.625000 0.750000
vt 0.375000 0.750000
vt 0.625000 1.000000
vt 0.375000 1.000000
vt 0.125000 0.500000
vt 0.125000 0.750000
vt 0.875000 0.500000
vt 0.875000 0.750000
s 0
usemtl yamato_armor
f 327/639/196 328/640/196 330/641/196 329/642/196
f 329/642/197 330/641/197 334/643/197 333/644/197
f 333/644/198 334/643/198 332/645/198 331/646/198
f 331/646/199 332/645/199 328/647/199 327/648/199
f 329/649/200 333/644/200 331/646/200 327/650/200
f 334/643/201 330/651/201 328/652/201 332/645/201
o main_barrel_2_-0.32
v -0.320000 0.710000 -1.700000
v -0.320000 0.710000 -0.500000
v -0.297039 0.705433 -1.700000
v -0.297039 0.705433 -0.500000
v -0.277574 0.692426 -1.700000
v -0.277574 0.692426 -0.500000
v -0.264567 0.672961 -1.700000
v -0.264567 0.672961 -0.500000
v -0.260000 0.650000 -1.700000
v -0.260000 0.650000 -0.500000
v -0.264567 0.627039 -1.700000
v -0.264567 0.627039 -0.500000
v -0.277574 0.607574 -1.700000
v -0.277574 0.607574 -0.500000
v -0.297039 0.594567 -1.700000
v -0.297039 0.594567 -0.500000
v -0.320000 0.590000 -1.700000
v -0.320000 0.590000 -0.500000
v -0.342961 0.594567 -1.700000
v -0.342961 0.594567 -0.500000
v -0.362426 0.607574 -1.700000
v -0.362426 0.607574 -0.500000
v -0.375433 0.627039 -1.700000
v -0.375433 0.627039 -0.500000
v -0.380000 0.650000 -1.700000
v -0.380000 0.650000 -0.500000
v -0.375433 0.672961 -1.700000
v -0.375433 0.672961 -0.500000
v -0.362426 0.692426 -1.700000
v -0.362426 0.692426 -0.500000
v -0.342961 0.705433 -1.700000
v -0.342961 0.705433 -0.500000
vn 0.1951 0.9808 -0.0000
vn 0.5556 0.8315 -0.0000
vn 0.8315 0.5556 -0.0000
vn 0.9808 0.1951 -0.0000
vn 0.9808 -0.1951 -0.0000
vn 0.8315 -0.5556 -0.0000
vn 0.5556 -0.8315 -0.0000
vn 0.1951 -0.9808 -0.0000
vn -0.1951 -0.9808 -0.0000
vn -0.5556 -0.8315 -0.0000
vn -0.8315 -0.5556 -0.0000
vn -0.9808 -0.1951 -0.0000
vn -0.9808 0.1951 -0.0000
vn -0.8315 0.5556 -0.0000
vn -0.0000 -0.0000 1.0000
vn -0.5556 0.8315 -0.0000
vn -0.1951 0.9808 -0.0000
vn -0.0000 -0.0000 -1.0000
vt 1.000000 0.500000
vt 1.000000 1.000000
vt 0.937500 1.000000
vt 0.937500 0.500000
vt 0.875000 1.000000
vt 0.875000 0.500000
vt 0.812500 1.000000
vt 0.812500 0.500000
vt 0.750000 1.000000
vt 0.750000 0.500000
vt 0.687500 1.000000
vt 0.687500 0.500000
vt 0.625000 1.000000
vt 0.625000 0.500000
vt 0.562500 1.000000
vt 0.562500 0.500000
vt 0.500000 1.000000
vt 0.500000 0.500000
vt 0.437500 1.000000
vt 0.437500 0.500000
vt 0.375000 1.000000
vt 0.375000 0.500000
vt 0.312500 1.000000
vt 0.312500 0.500000
vt 0.250000 1.000000
vt 0.250000 0.500000
vt 0.187500 1.000000
vt 0.187500 0.500000
vt 0.125000 1.000000
vt 0.125000 0.500000
vt 0.341844 0.471731
vt 0.250000 0.490000
vt 0.158156 0.471731
vt 0.080294 0.419706
vt 0.028269 0.341844
vt 0.010000 0.250000
vt 0.028269 0.158156
vt 0.080294 0.080294
vt 0.158156 0.028269
vt 0.250000 0.010000
vt 0.341844 0.028269
vt 0.419706 0.080294
vt 0.471731 0.158156
vt 0.490000 0.250000
vt 0.471731 0.341844
vt 0.419706 0.419706
vt 0.062500 1.000000
vt 0.062500 0.500000
vt 0.000000 1.000000
vt 0.000000 0.500000
vt 0.750000 0.490000
vt 0.841844 0.471731
vt 0.919706 0.419706
vt 0.971731 0.341844
vt 0.990000 0.250000
vt 0.971731 0.158156
vt 0.919706 0.080294
vt 0.841844 0.028269
vt 0.750000 0.010000
vt 0.658156 0.028269
vt 0.580294 0.080294
vt 0.528269 0.158156
vt 0.510000 0.250000
vt 0.528269 0.341844
vt 0.580294 0.419706
vt 0.658156 0.471731
s 0
usemtl yamato_dark
f 335/653/202 336/654/202 338/655/202 337/656/202
f 337/656/203 338/655/203 340/657/203 339/658/203
f 339/658/204 340/657/204 342/659/204 341/660/204
f 341/660/205 342/659/205 344/661/205 343/662/205
f 343/662/206 344/661/206 346/663/206 345/664/206
f 345/664/207 346/663/207 348/665/207 347/666/207
f 347/666/208 348/665/208 350/667/208 349/668/208
f 349/668/209 350/667/209 352/669/209 351/670/209
f 351/670/210 352/669/210 354/671/210 353/672/210
f 353/672/211 354/671/211 356/673/211 355/674/211
f 355/674/212 356/673/212 358/675/212 357/676/212
f 357/676/213 358/675/213 360/677/213 359/678/213
f 359/678/214 360/677/214 362/679/214 361/680/214
f 361/680/215 362/679/215 364/681/215 363/682/215
f 338/683/216 336/684/216 366/685/216 364/686/216 362/687/216 360/688/216 358/689/216 356/690/216 354/691/216 352/692/216 350/693/216 348/694/216 346/695/216 344/696/216 342/697/216 340/698/216
f 363/682/217 364/681/217 366/699/217 365/700/217
f 365/700/218 366/699/218 336/701/218 335/702/218
f 335/703/219 337/704/219 339/705/219 341/706/219 343/707/219 345/708/219 347/709/219 349/710/219 351/711/219 353/712/219 355/713/219 357/714/219 359/715/219 361/716/219 363/717/219 365/718/219
o main_barrel_2_0.0
v 0.000000 0.710000 -1.700000
v 0.000000 0.710000 -0.500000
v 0.022961 0.705433 -1.700000
v 0.022961 0.705433 -0.500000
v 0.042426 0.692426 -1.700000
v 0.042426 0.692426 -0.500000
v 0.055433 0.672961 -1.700000
v 0.055433 0.672961 -0.500000
v 0.060000 0.650000 -1.700000
v 0.060000 0.650000 -0.500000
v 0.055433 0.627039 -1.700000
v 0.055433 0.627039 -0.500000
v 0.042426 0.607574 -1.700000
v 0.042426 0.607574 -0.500000
v 0.022961 0.594567 -1.700000
v 0.022961 0.594567 -0.500000
v 0.000000 0.590000 -1.700000
v 0.000000 0.590000 -0.500000
v -0.022961 0.594567 -1.700000
v -0.022961 0.594567 -0.500000
v -0.042426 0.607574 -1.700000
v -0.042426 0.607574 -0.500000
v -0.055433 0.627039 -1.700000
v -0.055433 0.627039 -0.500000
v -0.060000 0.650000 -1.700000
v -0.060000 0.650000 -0.500000
v -0.055433 0.672961 -1.700000
v -0.055433 0.672961 -0.500000
v -0.042426 0.692426 -1.700000
v -0.042426 0.692426 -0.500000
v -0.022961 0.705433 -1.700000
v -0.022961 0.705433 -0.500000
vn 0.1951 0.9808 -0.0000
vn 0.5556 0.8315 -0.0000
vn 0.8315 0.5556 -0.0000
vn 0.9808 0.1951 -0.0000
vn 0.9808 -0.1951 -0.0000
vn 0.8315 -0.5556 -0.0000
vn 0.5556 -0.8315 -0.0000
vn 0.1951 -0.9808 -0.0000
vn -0.1951 -0.9808 -0.0000
vn -0.5556 -0.8315 -0.0000
vn -0.8315 -0.5556 -0.0000
vn -0.9808 -0.1951 -0.0000
vn -0.9808 0.1951 -0.0000
vn -0.8315 0.5556 -0.0000
vn -0.0000 -0.0000 1.0000
vn -0.5556 0.8315 -0.0000
vn -0.1951 0.9808 -0.0000
vn -0.0000 -0.0000 -1.0000
vt 1.000000 0.500000
vt 1.000000 1.000000
vt 0.937500 1.000000
vt 0.937500 0.500000
vt 0.875000 1.000000
vt 0.875000 0.500000
vt 0.812500 1.000000
vt 0.812500 0.500000
vt 0.750000 1.000000
vt 0.750000 0.500000
vt 0.687500 1.000000
vt 0.687500 0.500000
vt 0.625000 1.000000
vt 0.625000 0.500000
vt 0.562500 1.000000
vt 0.562500 0.500000
vt 0.500000 1.000000
vt 0.500000 0.500000
vt 0.437500 1.000000
vt 0.437500 0.500000
vt 0.375000 1.000000
vt 0.375000 0.500000
vt 0.312500 1.000000
vt 0.312500 0.500000
vt 0.250000 1.000000
vt 0.250000 0.500000
vt 0.187500 1.000000
vt 0.187500 0.500000
vt 0.125000 1.000000
vt 0.125000 0.500000
vt 0.341844 0.471731
vt 0.250000 0.490000
vt 0.158156 0.471731
vt 0.080294 0.419706
vt 0.028269 0.341844
vt 0.010000 0.250000
vt 0.028269 0.158156
vt 0.080294 0.080294
vt 0.158156 0.028269
vt 0.250000 0.010000
vt 0.341844 0.028269
vt 0.419706 0.080294
vt 0.471731 0.158156
vt 0.490000 0.250000
vt 0.471731 0.341844
vt 0.419706 0.419706
vt 0.062500 1.000000
vt 0.062500 0.500000
vt 0.000000 1.000000
vt 0.000000 0.500000
vt 0.750000 0.490000
vt 0.841844 0.471731
vt 0.919706 0.419706
vt 0.971731 0.341844
vt 0.990000 0.250000
vt 0.971731 0.158156
vt 0.919706 0.080294
vt 0.841844 0.028269
vt 0.750000 0.010000
vt 0.658156 0.028269
vt 0.580294 0.080294
vt 0.528269 0.158156
vt 0.510000 0.250000
vt 0.528269 0.341844
vt 0.580294 0.419706
vt 0.658156 0.471731
s 0
usemtl yamato_dark
f 367/719/220 368/720/220 370/721/220 369/722/220
f 369/722/221 370/721/221 372/723/221 371/724/221
f 371/724/222 372/723/222 374/725/222 373/726/222
f 373/726/223 374/725/223 376/727/223 375/728/223
f 375/728/224 376/727/224 378/729/224 377/730/224
f 377/730/225 378/729/225 380/731/225 379/732/225
f 379/732/226 380/731/226 382/733/226 381/734/226
f 381/734/227 382/733/227 384/735/227 383/736/227
f 383/736/228 384/735/228 386/737/228 385/738/228
f 385/738/229 386/737/229 388/739/229 387/740/229
f 387/740/230 388/739/230 390/741/230 389/742/230
f 389/742/231 390/741/231 392/743/231 391/744/231
f 391/744/232 392/743/232 394/745/232 393/746/232
f 393/746/233 394/745/233 396/747/233 395/748/233
f 370/749/234 368/750/234 398/751/234 396/752/234 394/753/234 392/754/234 390/755/234 388/756/234 386/757/234 384/758/234 382/759/234 380/760/234 378/761/234 376/762/234 374/763/234 372/764/234
f 395/748/235 396/747/235 398/765/235 397/766/235
f 397/766/236 398/765/236 368/767/236 367/768/236
f 367/769/237 369/770/237 371/771/237 373/772/237 375/773/237 377/774/237 379/775/237 381/776/237 383/777/237 385/778/237 387/779/237 389/780/237 391/781/237 393/782/237 395/783/237 397/784/237
o main_barrel_2_0.32
v 0.320000 0.710000 -1.700000
v 0.320000 0.710000 -0.500000
v 0.342961 0.705433 -1.700000
v 0.342961 0.705433 -0.500000
v 0.362426 0.692426 -1.700000
v 0.362426 0.692426 -0.500000
v 0.375433 0.672961 -1.700000
v 0.375433 0.672961 -0.500000
v 0.380000 0.650000 -1.700000
v 0.380000 0.650000 -0.500000
v 0.375433 0.627039 -1.700000
v 0.375433 0.627039 -0.500000
v 0.362426 0.607574 -1.700000
v 0.362426 0.607574 -0.500000
v 0.342961 0.594567 -1.700000
v 0.342961 0.594567 -0.500000
v 0.320000 0.590000 -1.700000
v 0.320000 0.590000 -0.500000
v 0.297039 0.594567 -1.700000
v 0.297039 0.594567 -0.500000
v 0.277574 0.607574 -1.700000
v 0.277574 0.607574 -0.500000
v 0.264567 0.627039 -1.700000
v 0.264567 0.627039 -0.500000
v 0.260000 0.650000 -1.700000
v 0.260000 0.650000 -0.500000
v 0.264567 0.672961 -1.700000
v 0.264567 0.672961 -0.500000
v 0.277574 0.692426 -1.700000
v 0.277574 0.692426 -0.500000
v 0.297039 0.705433 -1.700000
v 0.297039 0.705433 -0.500000
vn 0.1951 0.9808 -0.0000
vn 0.5556 0.8315 -0.0000
vn 0.8315 0.5556 -0.0000
vn 0.9808 0.1951 -0.0000
vn 0.9808 -0.1951 -0.0000
vn 0.8315 -0.5556 -0.0000
vn 0.5556 -0.8315 -0.0000
vn 0.1951 -0.9808 -0.0000
vn -0.1951 -0.9808 -0.0000
vn -0.5556 -0.8315 -0.0000
vn -0.8315 -0.5556 -0.0000
vn -0.9808 -0.1951 -0.0000
vn -0.9808 0.1951 -0.0000
vn -0.8315 0.5556 -0.0000
vn -0.0000 -0.0000 1.0000
vn -0.5556 0.8315 -0.0000
vn -0.1951 0.9808 -0.0000
vn -0.0000 -0.0000 -1.0000
vt 1.000000 0.500000
vt 1.000000 1.000000
vt 0.937500 1.000000
vt 0.937500 0.500000
vt 0.875000 1.000000
vt 0.875000 0.500000
vt 0.812500 1.000000
vt 0.812500 0.500000
vt 0.750000 1.000000
vt 0.750000 0.500000
vt 0.687500 1.000000
vt 0.687500 0.500000
vt 0.625000 1.000000
vt 0.625000 0.500000
vt 0.562500 1.000000
vt 0.562500 0.500000
vt 0.500000 1.000000
vt 0.500000 0.500000
vt 0.437500 1.000000
vt 0.437500 0.500000
vt 0.375000 1.000000
vt 0.375000 0.500000
vt 0.312500 1.000000
vt 0.312500 0.500000
vt 0.250000 1.000000
vt 0.250000 0.500000
vt 0.187500 1.000000
vt 0.187500 0.500000
vt 0.125000 1.000000
vt 0.125000 0.500000
vt 0.341844 0.471731
vt 0.250000 0.490000
vt 0.158156 0.471731
vt 0.080294 0.419706
vt 0.028269 0.341844
vt 0.010000 0.250000
vt 0.028269 0.158156
vt 0.080294 0.080294
vt 0.158156 0.028269
vt 0.250000 0.010000
vt 0.341844 0.028269
vt 0.419706 0.080294
vt 0.471731 0.158156
vt 0.490000 0.250000
vt 0.471731 0.341844
vt 0.419706 0.419706
vt 0.062500 1.000000
vt 0.062500 0.500000
vt 0.000000 1.000000
vt 0.000000 0.500000
vt 0.750000 0.490000
vt 0.841844 0.471731
vt 0.919706 0.419706
vt 0.971731 0.341844
vt 0.990000 0.250000
vt 0.971731 0.158156
vt 0.919706 0.080294
vt 0.841844 0.028269
vt 0.750000 0.010000
vt 0.658156 0.028269
vt 0.580294 0.080294
vt 0.528269 0.158156
vt 0.510000 0.250000
vt 0.528269 0.341844
vt 0.580294 0.419706
vt 0.658156 0.471731
s 0
usemtl yamato_dark
f 399/785/238 400/786/238 402/787/238 401/788/238
f 401/788/239 402/787/239 404/789/239 403/790/239
f 403/790/240 404/789/240 406/791/240 405/792/240
f 405/792/241 406/791/241 408/793/241 407/794/241
f 407/794/242 408/793/242 410/795/242 409/796/242
f 409/796/243 410/795/243 412/797/243 411/798/243
f 411/798/244 412/797/244 414/799/244 413/800/244
f 413/800/245 414/799/245 416/801/245 415/802/245
f 415/802/246 416/801/246 418/803/246 417/804/246
f 417/804/247 418/803/247 420/805/247 419/806/247
f 419/806/248 420/805/248 422/807/248 421/808/248
f 421/808/249 422/807/249 424/809/249 423/810/249
f 423/810/250 424/809/250 426/811/250 425/812/250
f 425/812/251 426/811/251 428/813/251 427/814/251
f 402/815/252 400/816/252 430/817/252 428/818/252 426/819/252 424/820/252 422/821/252 420/822/252 418/823/252 416/824/252 414/825/252 412/826/252 410/827/252 408/828/252 406/829/252 404/830/252
f 427/814/253 428/813/253 430/831/253 429/832/253
f 429/832/254 430/831/254 400/833/254 399/834/254
f 399/835/255 401/836/255 403/837/255 405/838/255 407/839/255 409/840/255 411/841/255 413/842/255 415/843/255 417/844/255 419/845/255 421/846/255 423/847/255 425/848/255 427/849/255 429/850/255
o engine_nozzle_-1.18
v -1.180000 5.320000 -0.280000
v -1.180000 5.640000 -0.280000
v -1.092001 5.320000 -0.268415
v -1.092001 5.640000 -0.268415
v -1.010000 5.320000 -0.234449
v -1.010000 5.640000 -0.234449
v -0.939584 5.320000 -0.180416
v -0.939584 5.640000 -0.180416
v -0.885551 5.320000 -0.110000
v -0.885551 5.640000 -0.110000
v -0.851585 5.320000 -0.027998
v -0.851585 5.640000 -0.027998
v -0.840000 5.320000 0.060000
v -0.840000 5.640000 0.060000
v -0.851585 5.320000 0.147998
v -0.851585 5.640000 0.147998
v -0.885551 5.320000 0.230000
v -0.885551 5.640000 0.230000
v -0.939584 5.320000 0.300416
v -0.939584 5.640000 0.300416
v -1.010000 5.320000 0.354449
v -1.010000 5.640000 0.354449
v -1.092001 5.320000 0.388415
v -1.092001 5.640000 0.388415
v -1.180000 5.320000 0.400000
v -1.180000 5.640000 0.400000
v -1.267998 5.320000 0.388415
v -1.267998 5.640000 0.388415
v -1.350000 5.320000 0.354449
v -1.350000 5.640000 0.354449
v -1.420416 5.320000 0.300416
v -1.420416 5.640000 0.300416
v -1.474449 5.320000 0.230000
v -1.474449 5.640000 0.230000
v -1.508415 5.320000 0.147998
v -1.508415 5.640000 0.147998
v -1.520000 5.320000 0.060000
v -1.520000 5.640000 0.060000
v -1.508415 5.320000 -0.027998
v -1.508415 5.640000 -0.027998
v -1.474449 5.320000 -0.110000
v -1.474449 5.640000 -0.110000
v -1.420416 5.320000 -0.180416
v -1.420416 5.640000 -0.180416
v -1.350000 5.320000 -0.234449
v -1.350000 5.640000 -0.234449
v -1.267998 5.320000 -0.268415
v -1.267998 5.640000 -0.268415
vn 0.1305 -0.0000 -0.9914
vn 0.3827 -0.0000 -0.9239
vn 0.6088 -0.0000 -0.7934
vn 0.7934 -0.0000 -0.6088
vn 0.9239 -0.0000 -0.3827
vn 0.9914 -0.0000 -0.1305
vn 0.9914 -0.0000 0.1305
vn 0.9239 -0.0000 0.3827
vn 0.7934 -0.0000 0.6088
vn 0.6088 -0.0000 0.7934
vn 0.3827 -0.0000 0.9239
vn 0.1305 -0.0000 0.9914
vn -0.1305 -0.0000 0.9914
vn -0.3827 -0.0000 0.9239
vn -0.6088 -0.0000 0.7934
vn -0.7934 -0.0000 0.6088
vn -0.9239 -0.0000 0.3827
vn -0.9914 -0.0000 0.1305
vn -0.9914 -0.0000 -0.1305
vn -0.9239 -0.0000 -0.3827
vn -0.7934 -0.0000 -0.6088
vn -0.6088 -0.0000 -0.7934
vn -0.0000 1.0000 -0.0000
vn -0.3827 -0.0000 -0.9239
vn -0.1305 -0.0000 -0.9914
vn -0.0000 -1.0000 -0.0000
vt 1.000000 0.500000
vt 1.000000 1.000000
vt 0.958333 1.000000
vt 0.958333 0.500000
vt 0.916667 1.000000
vt 0.916667 0.500000
vt 0.875000 1.000000
vt 0.875000 0.500000
vt 0.833333 1.000000
vt 0.833333 0.500000
vt 0.791667 1.000000
vt 0.791667 0.500000
vt 0.750000 1.000000
vt 0.750000 0.500000
vt 0.708333 1.000000
vt 0.708333 0.500000
vt 0.666667 1.000000
vt 0.666667 0.500000
vt 0.625000 1.000000
vt 0.625000 0.500000
vt 0.583333 1.000000
vt 0.583333 0.500000
vt 0.541666 1.000000
vt 0.541666 0.500000
vt 0.500000 1.000000
vt 0.500000 0.500000
vt 0.458333 1.000000
vt 0.458333 0.500000
vt 0.416666 1.000000
vt 0.416666 0.500000
vt 0.375000 1.000000
vt 0.375000 0.500000
vt 0.333333 1.000000
vt 0.333333 0.500000
vt 0.291667 1.000000
vt 0.291667 0.500000
vt 0.250000 1.000000
vt 0.250000 0.500000
vt 0.208333 1.000000
vt 0.208333 0.500000
vt 0.166666 1.000000
vt 0.166666 0.500000
vt 0.125000 1.000000
vt 0.125000 0.500000
vt 0.083333 1.000000
vt 0.083333 0.500000
vt 0.312117 0.481822
vt 0.250000 0.490000
vt 0.187883 0.481822
vt 0.130000 0.457846
vt 0.080294 0.419706
vt 0.042154 0.370000
vt 0.018178 0.312117
vt 0.010000 0.250000
vt 0.018178 0.187883
vt 0.042154 0.130000
vt 0.080294 0.080294
vt 0.130000 0.042154
vt 0.187883 0.018178
vt 0.250000 0.010000
vt 0.312117 0.018178
vt 0.370000 0.042154
vt 0.419706 0.080294
vt 0.457846 0.130000
vt 0.481822 0.187883
vt 0.490000 0.250000
vt 0.481822 0.312117
vt 0.457846 0.370000
vt 0.419706 0.419706
vt 0.370000 0.457846
vt 0.041666 1.000000
vt 0.041666 0.500000
vt -0.000000 1.000000
vt -0.000000 0.500000
vt 0.750000 0.490000
vt 0.812117 0.481822
vt 0.870000 0.457846
vt 0.919706 0.419706
vt 0.957846 0.370000
vt 0.981822 0.312117
vt 0.990000 0.250000
vt 0.981822 0.187883
vt 0.957846 0.130000
vt 0.919706 0.080294
vt 0.870000 0.042154
vt 0.812117 0.018178
vt 0.750000 0.010000
vt 0.687883 0.018178
vt 0.630000 0.042154
vt 0.580294 0.080294
vt 0.542154 0.130000
vt 0.518178 0.187883
vt 0.510000 0.250000
vt 0.518178 0.312117
vt 0.542154 0.370000
vt 0.580294 0.419706
vt 0.630000 0.457846
vt 0.687883 0.481822
s 0
usemtl yamato_engine_glow
f 431/851/256 432/852/256 434/853/256 433/854/256
f 433/854/257 434/853/257 436/855/257 435/856/257
f 435/856/258 436/855/258 438/857/258 437/858/258
f 437/858/259 438/857/259 440/859/259 439/860/259
f 439/860/260 440/859/260 442/861/260 441/862/260
f 441/862/261 442/861/261 444/863/261 443/864/261
f 443/864/262 444/863/262 446/865/262 445/866/262
f 445/866/263 446/865/263 448/867/263 447/868/263
f 447/868/264 448/867/264 450/869/264 449/870/264
f 449/870/265 450/869/265 452/871/265 451/872/265
f 451/872/266 452/871/266 454/873/266 453/874/266
f 453/874/267 454/873/267 456/875/267 455/876/267
f 455/876/268 456/875/268 458/877/268 457/878/268
f 457/878/269 458/877/269 460/879/269 459/880/269
f 459/880/270 460/879/270 462/881/270 461/882/270
f 461/882/271 462/881/271 464/883/271 463/884/271
f 463/884/272 464/883/272 466/885/272 465/886/272
f 465/886/273 466/885/273 468/887/273 467/888/273
f 467/888/274 468/887/274 470/889/274 469/890/274
f 469/890/275 470/889/275 472/891/275 471/892/275
f 471/892/276 472/891/276 474/893/276 473/894/276
f 473/894/277 474/893/277 476/895/277 475/896/277
f 434/897/278 432/898/278 478/899/278 476/900/278 474/901/278 472/902/278 470/903/278 468/904/278 466/905/278 464/906/278 462/907/278 460/908/278 458/909/278 456/910/278 454/911/278 452/912/278 450/913/278 448/914/278 446/915/278 444/916/278 442/917/278 440/918/278 438/919/278 436/920/278
f 475/896/279 476/895/279 478/921/279 477/922/279
f 477/922/280 478/921/280 432/923/280 431/924/280
f 431/925/281 433/926/281 435/927/281 437/928/281 439/929/281 441/930/281 443/931/281 445/932/281 447/933/281 449/934/281 451/935/281 453/936/281 455/937/281 457/938/281 459/939/281 461/940/281 463/941/281 465/942/281 467/943/281 469/944/281 471/945/281 473/946/281 475/947/281 477/948/281
o engine_nozzle_1.18
v 1.180000 5.320000 -0.280000
v 1.180000 5.640000 -0.280000
v 1.267998 5.320000 -0.268415
v 1.267998 5.640000 -0.268415
v 1.350000 5.320000 -0.234449
v 1.350000 5.640000 -0.234449
v 1.420416 5.320000 -0.180416
v 1.420416 5.640000 -0.180416
v 1.474449 5.320000 -0.110000
v 1.474449 5.640000 -0.110000
v 1.508415 5.320000 -0.027998
v 1.508415 5.640000 -0.027998
v 1.520000 5.320000 0.060000
v 1.520000 5.640000 0.060000
v 1.508415 5.320000 0.147998
v 1.508415 5.640000 0.147998
v 1.474449 5.320000 0.230000
v 1.474449 5.640000 0.230000
v 1.420416 5.320000 0.300416
v 1.420416 5.640000 0.300416
v 1.350000 5.320000 0.354449
v 1.350000 5.640000 0.354449
v 1.267998 5.320000 0.388415
v 1.267998 5.640000 0.388415
v 1.180000 5.320000 0.400000
v 1.180000 5.640000 0.400000
v 1.092001 5.320000 0.388415
v 1.092001 5.640000 0.388415
v 1.010000 5.320000 0.354449
v 1.010000 5.640000 0.354449
v 0.939584 5.320000 0.300416
v 0.939584 5.640000 0.300416
v 0.885551 5.320000 0.230000
v 0.885551 5.640000 0.230000
v 0.851585 5.320000 0.147998
v 0.851585 5.640000 0.147998
v 0.840000 5.320000 0.060000
v 0.840000 5.640000 0.060000
v 0.851585 5.320000 -0.027998
v 0.851585 5.640000 -0.027998
v 0.885551 5.320000 -0.110000
v 0.885551 5.640000 -0.110000
v 0.939584 5.320000 -0.180416
v 0.939584 5.640000 -0.180416
v 1.010000 5.320000 -0.234449
v 1.010000 5.640000 -0.234449
v 1.092001 5.320000 -0.268415
v 1.092001 5.640000 -0.268415
vn 0.1305 -0.0000 -0.9914
vn 0.3827 -0.0000 -0.9239
vn 0.6088 -0.0000 -0.7934
vn 0.7934 -0.0000 -0.6088
vn 0.9239 -0.0000 -0.3827
vn 0.9914 -0.0000 -0.1305
vn 0.9914 -0.0000 0.1305
vn 0.9239 -0.0000 0.3827
vn 0.7934 -0.0000 0.6088
vn 0.6088 -0.0000 0.7934
vn 0.3827 -0.0000 0.9239
vn 0.1305 -0.0000 0.9914
vn -0.1305 -0.0000 0.9914
vn -0.3827 -0.0000 0.9239
vn -0.6088 -0.0000 0.7934
vn -0.7934 -0.0000 0.6088
vn -0.9239 -0.0000 0.3827
vn -0.9914 -0.0000 0.1305
vn -0.9914 -0.0000 -0.1305
vn -0.9239 -0.0000 -0.3827
vn -0.7934 -0.0000 -0.6088
vn -0.6088 -0.0000 -0.7934
vn -0.0000 1.0000 -0.0000
vn -0.3827 -0.0000 -0.9239
vn -0.1305 -0.0000 -0.9914
vn -0.0000 -1.0000 -0.0000
vt 1.000000 0.500000
vt 1.000000 1.000000
vt 0.958333 1.000000
vt 0.958333 0.500000
vt 0.916667 1.000000
vt 0.916667 0.500000
vt 0.875000 1.000000
vt 0.875000 0.500000
vt 0.833333 1.000000
vt 0.833333 0.500000
vt 0.791667 1.000000
vt 0.791667 0.500000
vt 0.750000 1.000000
vt 0.750000 0.500000
vt 0.708333 1.000000
vt 0.708333 0.500000
vt 0.666667 1.000000
vt 0.666667 0.500000
vt 0.625000 1.000000
vt 0.625000 0.500000
vt 0.583333 1.000000
vt 0.583333 0.500000
vt 0.541666 1.000000
vt 0.541666 0.500000
vt 0.500000 1.000000
vt 0.500000 0.500000
vt 0.458333 1.000000
vt 0.458333 0.500000
vt 0.416666 1.000000
vt 0.416666 0.500000
vt 0.375000 1.000000
vt 0.375000 0.500000
vt 0.333333 1.000000
vt 0.333333 0.500000
vt 0.291667 1.000000
vt 0.291667 0.500000
vt 0.250000 1.000000
vt 0.250000 0.500000
vt 0.208333 1.000000
vt 0.208333 0.500000
vt 0.166666 1.000000
vt 0.166666 0.500000
vt 0.125000 1.000000
vt 0.125000 0.500000
vt 0.083333 1.000000
vt 0.083333 0.500000
vt 0.312117 0.481822
vt 0.250000 0.490000
vt 0.187883 0.481822
vt 0.130000 0.457846
vt 0.080294 0.419706
vt 0.042154 0.370000
vt 0.018178 0.312117
vt 0.010000 0.250000
vt 0.018178 0.187883
vt 0.042154 0.130000
vt 0.080294 0.080294
vt 0.130000 0.042154
vt 0.187883 0.018178
vt 0.250000 0.010000
vt 0.312117 0.018178
vt 0.370000 0.042154
vt 0.419706 0.080294
vt 0.457846 0.130000
vt 0.481822 0.187883
vt 0.490000 0.250000
vt 0.481822 0.312117
vt 0.457846 0.370000
vt 0.419706 0.419706
vt 0.370000 0.457846
vt 0.041666 1.000000
vt 0.041666 0.500000
vt -0.000000 1.000000
vt -0.000000 0.500000
vt 0.750000 0.490000
vt 0.812117 0.481822
vt 0.870000 0.457846
vt 0.919706 0.419706
vt 0.957846 0.370000
vt 0.981822 0.312117
vt 0.990000 0.250000
vt 0.981822 0.187883
vt 0.957846 0.130000
vt 0.919706 0.080294
vt 0.870000 0.042154
vt 0.812117 0.018178
vt 0.750000 0.010000
vt 0.687883 0.018178
vt 0.630000 0.042154
vt 0.580294 0.080294
vt 0.542154 0.130000
vt 0.518178 0.187883
vt 0.510000 0.250000
vt 0.518178 0.312117
vt 0.542154 0.370000
vt 0.580294 0.419706
vt 0.630000 0.457846
vt 0.687883 0.481822
s 0
usemtl yamato_engine_glow
f 479/949/282 480/950/282 482/951/282 481/952/282
f 481/952/283 482/951/283 484/953/283 483/954/283
f 483/954/284 484/953/284 486/955/284 485/956/284
f 485/956/285 486/955/285 488/957/285 487/958/285
f 487/958/286 488/957/286 490/959/286 489/960/286
f 489/960/287 490/959/287 492/961/287 491/962/287
f 491/962/288 492/961/288 494/963/288 493/964/288
f 493/964/289 494/963/289 496/965/289 495/966/289
f 495/966/290 496/965/290 498/967/290 497/968/290
f 497/968/291 498/967/291 500/969/291 499/970/291
f 499/970/292 500/969/292 502/971/292 501/972/292
f 501/972/293 502/971/293 504/973/293 503/974/293
f 503/974/294 504/973/294 506/975/294 505/976/294
f 505/976/295 506/975/295 508/977/295 507/978/295
f 507/978/296 508/977/296 510/979/296 509/980/296
f 509/980/297 510/979/297 512/981/297 511/982/297
f 511/982/298 512/981/298 514/983/298 513/984/298
f 513/984/299 514/983/299 516/985/299 515/986/299
f 515/986/300 516/985/300 518/987/300 517/988/300
f 517/988/301 518/987/301 520/989/301 519/990/301
f 519/990/302 520/989/302 522/991/302 521/992/302
f 521/992/303 522/991/303 524/993/303 523/994/303
f 482/995/304 480/996/304 526/997/304 524/998/304 522/999/304 520/1000/304 518/1001/304 516/1002/304 514/1003/304 512/1004/304 510/1005/304 508/1006/304 506/1007/304 504/1008/304 502/1009/304 500/1010/304 498/1011/304 496/1012/304 494/1013/304 492/1014/304 490/1015/304 488/1016/304 486/1017/304 484/1018/304
f 523/994/305 524/993/305 526/1019/305 525/1020/305
f 525/1020/306 526/1019/306 480/1021/306 479/1022/306
f 479/1023/307 481/1024/307 483/1025/307 485/1026/307 487/1027/307 489/1028/307 491/1029/307 493/1030/307 495/1031/307 497/1032/307 499/1033/307 501/1034/307 503/1035/307 505/1036/307 507/1037/307 509/1038/307 511/1039/307 513/1040/307 515/1041/307 517/1042/307 519/1043/307 521/1044/307 523/1045/307 525/1046/307
